<svg xmlns="http://www.w3.org/2000/svg" xmlns:xlink="http://www.w3.org/1999/xlink" xmlns:lucid="lucid" width="1714.15" height="1060"><g transform="translate(-100 -60)" lucid:page-tab-id="0_0"><path d="M120 300h34.68v34.68H120zm41.04 0h37.92v34.68h-37.92zm44.28 0H240v34.68h-34.68zM120 341.04h34.68v34.8H120zm41.04 0h37.92v34.8h-37.92zm44.28 0H240v34.8h-34.68zM120 382.08h34.68V420H120zm41.04 0h37.92V420h-37.92zm44.28 0H240V420h-34.68z" stroke="#000" stroke-opacity="0" stroke-width="3.04" fill="#0072c6"/><path d="M121.44 301.53h117.03v117.03H121.44V301.53z" stroke="#000" stroke-opacity="0" stroke-width="0" fill-opacity="0"/><use xlink:href="#a" transform="matrix(1,0,0,1,90,429) translate(44.075 14.4)"/><use xlink:href="#b" transform="matrix(1,0,0,1,90,429) translate(94.92500000000001 14.4)"/><path d="M500 380c-22.08 0-40-17.92-40-40s17.92-40 40-40 40 17.92 40 40-17.92 40-40 40zm0-76.8c-20.32 0-36.8 16.48-36.8 36.8 0 20.32 16.48 36.8 36.8 36.8 20.32 0 36.8-16.48 36.8-36.8 0-20.32-16.48-36.8-36.8-36.8z" stroke="#fff" stroke-opacity="0" stroke-width="3" fill="#693cc5"/><path d="M523.86 351.2h-3.06v-6.4c0-.9-.7-1.6-1.58-1.6h-4.83v-6.4c0-.9-.73-1.58-1.6-1.58h-11.2v-4.8h11.2c.87 0 1.6-.76 1.6-1.6V314.4c0-.9-.73-1.6-1.6-1.6h-25.6c-.88 0-1.6.7-1.6 1.6v14.42c0 .84.72 1.6 1.6 1.6h11.2v4.8h-11.2c-.88 0-1.6.7-1.6 1.6v6.38h-4.78c-.9 0-1.63.7-1.63 1.6v6.4h-3.06c-.87 0-1.58.73-1.58 1.58v8.03c0 .9.7 1.6 1.58 1.6h7.84c.92 0 1.63-.7 1.63-1.6v-8.02c0-.85-.7-1.6-1.62-1.6h-1.58v-4.8h8v4.8h-1.58c-.92 0-1.63.75-1.63 1.6v8.03c0 .9.7 1.6 1.62 1.6h8c.86 0 1.57-.7 1.57-1.6v-8.02c0-.85-.72-1.6-1.58-1.6h-3.2v-6.4c0-.88-.73-1.58-1.64-1.58h-3.16v-4.8h22.36v4.8h-3.16c-.92 0-1.63.7-1.63 1.6v6.4h-3.22c-.86 0-1.58.73-1.58 1.58v8.03c0 .9.72 1.6 1.58 1.6h8c.9 0 1.63-.7 1.63-1.6v-8.02c0-.85-.7-1.6-1.62-1.6h-1.58v-4.8h8v4.8h-1.74c-.86 0-1.58.75-1.58 1.6v8.03c0 .9.72 1.6 1.58 1.6h8.05c.88 0 1.6-.7 1.6-1.6v-8.02-.05c-.06-.85-.78-1.54-1.64-1.54zm-41.46 7.98h-4.63v-4.77h4.63zm12.8-4.77v4.78h-4.8v-4.77zm-6.38-27.22v-11.16h22.36v11.16zm20.78 32h-4.8v-4.77h4.8zm12.63 0h-4.8v-4.77h4.8z" stroke="#fff" stroke-opacity="0" stroke-width="3" fill="#693cc5"/><use xlink:href="#c" transform="matrix(1,0,0,1,430,389) translate(15.7716049382716 17.77777777777778)"/><use xlink:href="#d" transform="matrix(1,0,0,1,430,389) translate(45.308641975308646 44.44444444444444)"/><use xlink:href="#e" transform="matrix(1,0,0,1,430,389) translate(26.234567901234563 71.11111111111111)"/><path d="M1753.95 480H1413c-7.1 0-13-8.4-13-15.12V372.6c0-6.84 5.9-12.6 13-12.6h340.95c2.36 0 7.1 0 39.02 60.36l1.18 2.04-1.18 2.04C1761.04 480 1756.3 480 1753.95 480zM1412.6 368.4c-2.75 0-4.72 2.04-4.72 4.2v92.16c0 3.24 2.76 6.84 4.73 6.84h339.77c3.94-3.6 18.92-27.72 31.53-49.8-12.6-24.12-27.6-49.8-32.32-53.88H1412.6v.48z" stroke="#000" stroke-opacity="0" fill="#2a3282"/><path d="M1516.67 381.36h-91.05c-2.76 0-5.12 2.04-5.12 5.16v68.16c0 2.64 1.97 5.28 5.12 5.28h91.05c2.76 0 5.52-2.04 5.52-5.28v-68.16c-.8-3.12-2.77-5.16-5.53-5.16zm-7.88 10.44l-38.64 29.88-38.23-29.88h76.86zm-78.45 57.6v-45l36.66 28.32c1.2.48 1.98.96 3.16.96 1.18 0 1.97-.48 3.15-.96l37.85-29.4v46.08h-80.8zM1628.6 381.36h-91.04c-2.76 0-5.13 2.04-5.13 5.16v68.16c0 2.64 1.97 5.28 5.13 5.28h91.05c2.77 0 5.52-2.04 5.52-5.28v-68.16c0-3.12-2.75-5.16-5.5-5.16zm-7.88 10.44l-38.62 29.88-38.24-29.88h76.86zm-78.43 57.6v-45l36.64 28.32c1.2.48 1.97.96 3.16.96 1.18 0 1.97-.48 3.15-.96l37.84-29.4v46.08h-80.8zM1740.55 381.36h-91.05c-2.76 0-5.13 2.04-5.13 5.16v68.16c0 2.64 1.97 5.28 5.13 5.28h91.05c2.75 0 5.5-2.04 5.5-5.28v-68.16c0-3.12-2.75-5.16-5.5-5.16zm-7.9 10.44l-38.6 29.88-38.25-29.88h76.86zm-78.03 57.6v-45l36.66 28.32c1.18.48 2.36.96 3.15.96 1.18 0 2.36-.48 3.15-.96l37.84-29.4v46.08h-80.8z" stroke="#000" stroke-opacity="0" fill="#2a3282"/><use xlink:href="#f" transform="matrix(1,0,0,1,1370,489) translate(60.37808641975312 21.511111111111106)"/><use xlink:href="#g" transform="matrix(1,0,0,1,1370,489) translate(203.48672839506173 21.511111111111106)"/><use xlink:href="#h" transform="matrix(1,0,0,1,1370,489) translate(319.93055555555554 21.511111111111106)"/><path d="M920 786c0-3.3 2.7-6 6-6h808c3.3 0 6 2.7 6 6v308c0 3.3-2.7 6-6 6H926c-3.3 0-6-2.7-6-6z" stroke="#5e5e5e" stroke-width="3" fill="#fff"/><use xlink:href="#i" transform="matrix(1,0,0,1,925,785) translate(405 41.19791666666666)"/><use xlink:href="#i" transform="matrix(1,0,0,1,925,785) translate(405 81.19791666666664)"/><use xlink:href="#i" transform="matrix(1,0,0,1,925,785) translate(405 121.19791666666663)"/><use xlink:href="#i" transform="matrix(1,0,0,1,925,785) translate(405 161.1979166666666)"/><use xlink:href="#i" transform="matrix(1,0,0,1,925,785) translate(405 201.1979166666666)"/><use xlink:href="#i" transform="matrix(1,0,0,1,925,785) translate(405 241.1979166666666)"/><use xlink:href="#j" transform="matrix(1,0,0,1,925,785) translate(253.51851851851856 281.19791666666663)"/><use xlink:href="#k" transform="matrix(1,0,0,1,925,785) translate(329.2592592592593 281.19791666666663)"/><use xlink:href="#l" transform="matrix(1,0,0,1,925,785) translate(458.6111111111111 281.19791666666663)"/><path d="M1508 868l121.8 18.5v55.1L1508 959.72V868zM1421.93 960l-121.8-18.5v-55.1l121.8-18.12V960zM140 786c0-3.3 2.7-6 6-6h608c3.3 0 6 2.7 6 6v288c0 3.3-2.7 6-6 6H146c-3.3 0-6-2.7-6-6z" stroke="#5e5e5e" stroke-width="3" fill="#fff"/><use xlink:href="#i" transform="matrix(1,0,0,1,145,785) translate(305 53.85416666666666)"/><use xlink:href="#i" transform="matrix(1,0,0,1,145,785) translate(305 93.85416666666664)"/><use xlink:href="#i" transform="matrix(1,0,0,1,145,785) translate(305 133.85416666666663)"/><use xlink:href="#i" transform="matrix(1,0,0,1,145,785) translate(305 173.8541666666666)"/><use xlink:href="#i" transform="matrix(1,0,0,1,145,785) translate(305 213.8541666666666)"/><use xlink:href="#m" transform="matrix(1,0,0,1,145,785) translate(124.86111111111117 253.8541666666666)"/><use xlink:href="#n" transform="matrix(1,0,0,1,145,785) translate(270.69444444444446 253.8541666666666)"/><use xlink:href="#o" transform="matrix(1,0,0,1,145,785) translate(324.21296296296293 253.8541666666666)"/><use xlink:href="#p" transform="matrix(1,0,0,1,145,785) translate(416.80555555555554 253.8541666666666)"/><path d="M306.46 871.08L280.1 825.8c-2.05-3.64-5.64-5.7-9.86-5.8h-52.48c-4.22.1-7.8 2.16-9.86 5.8l-26.36 45.16c-2.05 3.53-2.05 7.63 0 11.27l26.36 45.5c2.05 3.64 5.5 5.92 9.86 6.03h52.48c4.35-.1 7.8-2.27 9.86-6.03l26.36-45.16c2.05-3.76 2.05-7.85 0-11.5z" stroke="#000" stroke-opacity="0" stroke-width="1.27" fill="#4285f4"/><path d="M270.43 859.83h-2.16l-5.8-5.82-43.84 11.02 5.7 4.7-5.7 5.2 5.38 4.7-5.37 5.18 5.96 4.7-5.97 5.2L258 933.8h12.26c4.3-.17 7.86-2.32 9.85-6l21.27-36.53h-.08z" stroke="#000" stroke-opacity="0" stroke-width="1.27" fill="#4285f4"/><path d="M259.23 854.02l-32.43 5.26 1.5 2.8-8.03 4.94 2.8 4.8h-5.95v23.12L258 933.8h12.3c4.23-.17 7.8-2.32 9.85-6l19.7-33.9z" stroke="#000" stroke-opacity="0" stroke-width="1.27" fill="#407add"/><path d="M261.26 859.3h-34.5l2.03-5.28h30.42l2.04 5.28zm6.46 7.74H220.3l2-4.95h43.43l2 4.94zm-13 4.8l-1.74 3.27h-17.95l-1.72-3.27h-16.18v23.14h53.77v-23.14h-16.2z" stroke="#000" stroke-opacity="0" stroke-width="1.27" fill="#fff"/><use xlink:href="#q" transform="matrix(1,0,0,1,180,938.79) translate(64 17.77777777777778)"/><use xlink:href="#r" transform="matrix(1,0,0,1,180,938.79) translate(-29.148148148148138 44.44444444444444)"/><path d="M506.46 831.08L480.1 785.8c-2.05-3.64-5.64-5.7-9.86-5.8h-52.48c-4.22.1-7.8 2.16-9.86 5.8l-26.36 45.16c-2.05 3.53-2.05 7.63 0 11.27l26.36 45.5c2.05 3.64 5.5 5.92 9.86 6.03h52.48c4.35-.1 7.8-2.27 9.86-6.03l26.36-45.16c2.05-3.76 2.05-7.85 0-11.5z" stroke="#000" stroke-opacity="0" stroke-width="1.27" fill="#4285f4"/><path d="M470.43 819.83h-2.16l-5.8-5.82-43.84 11.02 5.7 4.7-5.7 5.2 5.38 4.7-5.37 5.18 5.96 4.7-5.97 5.2L458 893.8h12.26c4.3-.17 7.86-2.32 9.85-6l21.27-36.53h-.08z" stroke="#000" stroke-opacity="0" stroke-width="1.27" fill="#4285f4"/><path d="M459.23 814.02l-32.43 5.26 1.5 2.8-8.03 4.94 2.8 4.8h-5.95v23.12L458 893.8h12.3c4.23-.17 7.8-2.32 9.85-6l19.7-33.9z" stroke="#000" stroke-opacity="0" stroke-width="1.27" fill="#407add"/><path d="M461.26 819.3h-34.5l2.03-5.28h30.42l2.04 5.28zm6.46 7.74H420.3l2-4.95h43.43l2 4.94zm-13 4.8l-1.74 3.27h-17.95l-1.72-3.27h-16.18v23.14h53.77v-23.14h-16.2z" stroke="#000" stroke-opacity="0" stroke-width="1.27" fill="#fff"/><use xlink:href="#q" transform="matrix(1,0,0,1,380,898.79) translate(64 17.77777777777778)"/><use xlink:href="#s" transform="matrix(1,0,0,1,380,898.79) translate(-29.148148148148138 44.44444444444444)"/><path d="M726.46 871.08L700.1 825.8c-2.05-3.64-5.64-5.7-9.86-5.8h-52.48c-4.22.1-7.8 2.16-9.86 5.8l-26.36 45.16c-2.05 3.53-2.05 7.63 0 11.27l26.36 45.5c2.05 3.64 5.5 5.92 9.86 6.03h52.48c4.35-.1 7.8-2.27 9.86-6.03l26.36-45.16c2.05-3.76 2.05-7.85 0-11.5z" stroke="#000" stroke-opacity="0" stroke-width="1.27" fill="#4285f4"/><path d="M690.43 859.83h-2.16l-5.8-5.82-43.84 11.02 5.7 4.7-5.7 5.2 5.38 4.7-5.37 5.18 5.96 4.7-5.97 5.2L678 933.8h12.26c4.3-.17 7.86-2.32 9.85-6l21.27-36.53h-.08z" stroke="#000" stroke-opacity="0" stroke-width="1.27" fill="#4285f4"/><path d="M679.23 854.02l-32.43 5.26 1.5 2.8-8.03 4.94 2.8 4.8h-5.95v23.12L678 933.8h12.3c4.23-.17 7.8-2.32 9.85-6l19.7-33.9z" stroke="#000" stroke-opacity="0" stroke-width="1.27" fill="#407add"/><path d="M681.26 859.3h-34.5l2.03-5.28h30.42l2.04 5.28zm6.46 7.74H640.3l2-4.95h43.43l2 4.94zm-13 4.8l-1.74 3.27h-17.95l-1.72-3.27h-16.18v23.14h53.77v-23.14h-16.2z" stroke="#000" stroke-opacity="0" stroke-width="1.27" fill="#fff"/><use xlink:href="#q" transform="matrix(1,0,0,1,600,938.79) translate(64 17.77777777777778)"/><use xlink:href="#t" transform="matrix(1,0,0,1,600,938.79) translate(-29.148148148148138 44.44444444444444)"/><path d="M260 350c0-2.76 2.24-5 5-5h173.5c1.38 0 2.5-1.12 2.5-2.5s.75-1.67 1.67-.64l3.32 3.68c2.2 2.46 2.2 6.46 0 8.92l-3.33 3.68c-.92 1.03-1.67.74-1.67-.64s-1.12-2.5-2.5-2.5H265c-2.76 0-5-2.24-5-5z" stroke="#5e5e5e" stroke-width="3" fill="#fff"/><path d="M1066.23 133.6c-1.92.9-3.72 1.3-5.85 1.28-7.43 0-11.1-4.9-11.1-14.7-.3-4.04.65-7.6 2.86-11 2.1-2.62 5.06-3.88 8.4-3.65 1.95-.03 3.62.27 5.42 1v3.4c-1.7-.6-3.18-.9-4.97-1-2.28-.17-4.32.74-5.7 2.57-1.48 2.6-2.04 5.2-1.8 8.2v1c-.24 2.96.32 5.54 1.73 8.16 1.34 1.82 3.37 2.73 5.63 2.55 1.92-.13 3.53-.43 5.37-1.05zM1084.68 134.47l-1.98-7.77h-8.68l-1.94 7.77h-4.1l8.2-28.77h4.35l8.3 28.77zm-9.9-10.82h7.15l-3.57-14.06zM1107.66 133.6c-1.9.9-3.7 1.3-5.8 1.28-7.44 0-11.15-4.9-11.15-14.7-.28-4.04.66-7.6 2.87-11 2.12-2.62 5.08-3.88 8.45-3.65 1.92.03 3.55.35 5.33 1.12v3.4c-1.65-.64-3.12-.96-4.9-1.1-2.3-.2-4.33.72-5.72 2.55-1.46 2.6-2.03 5.2-1.8 8.2v1c-.24 2.96.32 5.54 1.76 8.16 1.32 1.82 3.33 2.73 5.6 2.55 1.9-.13 3.52-.43 5.36-1.05zM1126.63 134.47V121.4h-10.47v13.07h-4V105.7h4v12.43h10.47V105.7h4v28.77zM1136.87 134.47V105.7h14.57v3.22h-10.6V118h8.72v3.24h-8.7v10h10.5v3.23z" stroke="#fff" stroke-opacity="0" fill="#3b48cc"/><path d="M1158.08 240h-116c-12 .16-21.92-9.6-22.08-21.76V102.08c-.16-12 9.6-21.92 21.76-22.08H1158.24c12.16.16 21.92 10.08 21.76 22.08v116.16c-.16 12-9.92 21.76-21.92 21.76zm-116-153.12h-.16c-8.48 0-15.2 6.88-15.04 15.2v116.16c0 8.32 6.88 15.04 15.2 14.88h116.16c8.32 0 15.04-6.72 15.2-15.04v-116-.16c-.16-8.48-7.04-15.2-15.36-15.04z" stroke="#fff" stroke-opacity="0" fill="#3b48cc"/><use xlink:href="#u" transform="matrix(1,0,0,1,990,249) translate(48.33333333333334 17.77777777777778)"/><use xlink:href="#v" transform="matrix(1,0,0,1,990,249) translate(118.64197530864197 17.77777777777778)"/><path d="M1126.23 213.6c-1.92.9-3.72 1.3-5.85 1.28-7.43 0-11.1-4.9-11.1-14.7-.3-4.04.65-7.6 2.86-11 2.1-2.62 5.06-3.88 8.4-3.65 1.95-.03 3.62.27 5.42 1v3.4c-1.7-.6-3.18-.9-4.97-1-2.28-.17-4.32.74-5.7 2.57-1.48 2.6-2.04 5.2-1.8 8.2v1c-.24 2.96.32 5.54 1.73 8.16 1.34 1.82 3.37 2.73 5.63 2.55 1.92-.13 3.53-.43 5.37-1.05zM1144.68 214.47l-1.98-7.77h-8.68l-1.94 7.77h-4.1l8.2-28.77h4.35l8.3 28.77zm-9.9-10.82h7.15l-3.57-14.06zM1167.66 213.6c-1.9.9-3.7 1.3-5.8 1.28-7.44 0-11.15-4.9-11.15-14.7-.28-4.04.66-7.6 2.87-11 2.12-2.62 5.08-3.88 8.45-3.65 1.92.03 3.55.35 5.33 1.12v3.4c-1.65-.64-3.12-.96-4.9-1.1-2.3-.2-4.33.72-5.72 2.55-1.46 2.6-2.03 5.2-1.8 8.2v1c-.24 2.96.32 5.54 1.76 8.16 1.32 1.82 3.33 2.73 5.6 2.55 1.9-.13 3.52-.43 5.36-1.05zM1186.63 214.47V201.4h-10.47v13.07h-4V185.7h4v12.43h10.47V185.7h4v28.77zM1196.87 214.47V185.7h14.57v3.22h-10.6V198h8.72v3.24h-8.7v10h10.5v3.23z" stroke="#fff" stroke-opacity="0" fill="#3b48cc"/><path d="M1218.08 320h-116c-12 .16-21.92-9.6-22.08-21.76V182.08c-.16-12 9.6-21.92 21.76-22.08H1218.24c12.16.16 21.92 10.08 21.76 22.08v116.16c-.16 12-9.92 21.76-21.92 21.76zm-116-153.12h-.16c-8.48 0-15.2 6.88-15.04 15.2v116.16c0 8.32 6.88 15.04 15.2 14.88h116.16c8.32 0 15.04-6.72 15.2-15.04v-116-.16c-.16-8.48-7.04-15.2-15.36-15.04z" stroke="#fff" stroke-opacity="0" fill="#3b48cc"/><use xlink:href="#u" transform="matrix(1,0,0,1,1050,329) translate(48.33333333333334 17.77777777777778)"/><use xlink:href="#v" transform="matrix(1,0,0,1,1050,329) translate(118.64197530864197 17.77777777777778)"/><path d="M1186.23 293.6c-1.92.9-3.72 1.3-5.85 1.28-7.43 0-11.1-4.9-11.1-14.7-.3-4.04.65-7.6 2.86-11 2.1-2.62 5.06-3.88 8.4-3.65 1.95-.03 3.62.27 5.42 1v3.4c-1.7-.6-3.18-.9-4.97-1-2.28-.17-4.32.74-5.7 2.57-1.48 2.6-2.04 5.2-1.8 8.2v1c-.24 2.96.32 5.54 1.73 8.16 1.34 1.82 3.37 2.73 5.63 2.55 1.92-.13 3.53-.43 5.37-1.05zM1204.68 294.47l-1.98-7.77h-8.68l-1.94 7.77h-4.1l8.2-28.77h4.35l8.3 28.77zm-9.9-10.82h7.15l-3.57-14.06zM1227.66 293.6c-1.9.9-3.7 1.3-5.8 1.28-7.44 0-11.15-4.9-11.15-14.7-.28-4.04.66-7.6 2.87-11 2.12-2.62 5.08-3.88 8.45-3.65 1.92.03 3.55.35 5.33 1.12v3.4c-1.65-.64-3.12-.96-4.9-1.1-2.3-.2-4.33.72-5.72 2.55-1.46 2.6-2.03 5.2-1.8 8.2v1c-.24 2.96.32 5.54 1.76 8.16 1.32 1.82 3.33 2.73 5.6 2.55 1.9-.13 3.52-.43 5.36-1.05zM1246.63 294.47V281.4h-10.47v13.07h-4V265.7h4v12.43h10.47V265.7h4v28.77zM1256.87 294.47V265.7h14.57v3.22h-10.6V278h8.72v3.24h-8.7v10h10.5v3.23z" stroke="#fff" stroke-opacity="0" fill="#3b48cc"/><path d="M1278.08 400h-116c-12 .16-21.92-9.6-22.08-21.76V262.08c-.16-12 9.6-21.92 21.76-22.08H1278.24c12.16.16 21.92 10.08 21.76 22.08v116.16c-.16 12-9.92 21.76-21.92 21.76zm-116-153.12h-.16c-8.48 0-15.2 6.88-15.04 15.2v116.16c0 8.32 6.88 15.04 15.2 14.88h116.16c8.32 0 15.04-6.72 15.2-15.04v-116-.16c-.16-8.48-7.04-15.2-15.36-15.04z" stroke="#fff" stroke-opacity="0" fill="#3b48cc"/><use xlink:href="#u" transform="matrix(1,0,0,1,1110,409) translate(48.33333333333334 17.77777777777778)"/><use xlink:href="#v" transform="matrix(1,0,0,1,1110,409) translate(118.64197530864197 17.77777777777778)"/><path d="M799.66 163.17c-1.14.1-2.05.34-2.96.8l-39.44 19.43c-2.16 1.02-3.64 2.84-4.1 5.23l-9.77 43.76c-.47 2.04-.13 4.08 1 5.9.13.23.24.34.47.57l27.28 35c1.48 1.94 3.52 2.97 5.9 2.97h43.9c2.38 0 4.42-1.03 5.9-2.96l27.28-35c1.48-1.94 2.05-4.2 1.48-6.6l-9.77-43.65c-.45-2.4-1.93-4.2-4.1-5.23l-39.43-19.44c-1.25-.57-2.4-.9-3.64-.8z" stroke="#000" stroke-opacity="0" stroke-width="3.83" fill="#326ce5"/><path d="M799.64 160c-1.2.12-2.16.36-3.12.84l-41.64 20.52c-2.28 1.08-3.84 3-4.32 5.52l-10.32 46.2c-.48 2.16-.12 4.32 1.08 6.24.12.24.24.36.48.6l28.8 36.96c1.56 2.04 3.72 3.12 6.24 3.12h46.32c2.52 0 4.68-1.08 6.24-3.12l28.8-36.96c1.56-2.04 2.16-4.44 1.56-6.84l-10.32-46.2c-.48-2.52-2.04-4.44-4.32-5.52l-41.64-20.52c-1.32-.6-2.52-.96-3.84-.84zm0 3.24c1.32-.12 2.4.12 3.6.72l39.6 19.44c2.04 1.08 3.48 2.88 4.08 5.28l9.72 43.68c.48 2.4 0 4.56-1.44 6.48l-27.36 35.04c-1.44 1.92-3.48 3-5.88 3h-43.92c-2.4 0-4.44-1.08-5.88-3l-27.36-35.04c-.12-.12-.24-.36-.36-.6-1.2-1.8-1.56-3.72-1.08-5.88l9.72-43.68c.6-2.4 1.92-4.2 4.08-5.28l39.6-19.44c.96-.48 1.8-.72 2.88-.84z" stroke="#000" stroke-opacity="0" stroke-width="3.83" fill="#fff"/><path d="M794.02 262.07c0 3.56-1.2 5.35-3.64 5.35-1.53 0-2.56-.6-3.08-1.8h-.05c.03.07.04.6.04 1.63v4h-1.66v-12.17c0-1.05-.02-1.74-.06-2.1h1.6l.02.3.05.7.02.66h.03c.3-.62.7-1.08 1.17-1.37.48-.3 1.1-.45 1.9-.45 1.23 0 2.14.42 2.74 1.27.62.83.92 2.15.92 3.97zm-1.73.03c0-1.42-.2-2.44-.56-3.05-.38-.62-.97-.92-1.78-.92-.66 0-1.17.15-1.54.43-.37.28-.65.73-.85 1.33-.2.58-.28 1.38-.28 2.33 0 1.35.2 2.33.6 2.97.43.63 1.1.95 2.04.95.82 0 1.4-.3 1.78-.92.38-.62.57-1.66.57-3.13zM804.48 262.1c0 1.8-.4 3.13-1.15 4-.76.88-1.88 1.32-3.33 1.32-1.45 0-2.54-.46-3.28-1.36-.74-.92-1.1-2.24-1.1-3.96 0-3.53 1.47-5.3 4.44-5.3 1.52 0 2.63.45 3.34 1.3.72.87 1.08 2.2 1.08 4zm-1.73 0c0-1.4-.22-2.43-.62-3.07-.4-.64-1.08-.95-2.04-.95-.98 0-1.68.3-2.1.97-.44.65-.66 1.67-.66 3.05 0 1.35.2 2.37.64 3.05.42.68 1.1 1 2 1 1 0 1.7-.3 2.12-.97.43-.66.65-1.7.65-3.08zM812.8 265.58c-.3.66-.7 1.12-1.22 1.4-.5.3-1.13.43-1.87.43-1.24 0-2.17-.43-2.76-1.3-.58-.86-.88-2.18-.88-3.94 0-3.57 1.22-5.35 3.65-5.35.76 0 1.38.16 1.9.44.5.28.9.74 1.2 1.35v-5.4h1.64v11.9c0 1.08.03 1.8.06 2.13h-1.58l-.06-.7c0-.37-.03-.68-.03-.95zm-5-3.48c0 1.44.18 2.46.54 3.07.37.62.96.94 1.8.94.93 0 1.6-.33 2.02-1 .43-.67.64-1.7.64-3.1 0-1.36-.2-2.36-.64-2.98-.42-.63-1.1-.96-2-.96-.84 0-1.44.33-1.82.97-.36.63-.55 1.65-.55 3.07z" stroke="#000" stroke-opacity="0" fill="#fff"/><path d="M775.92 200.2L800 193l24.1 7.2-24.1 7.2zM775.92 202.95v26.4l22.43 12.83.12-32.32zM824.08 202.95v26.4l-22.44 12.83-.1-32.32z" stroke="#000" stroke-opacity="0" stroke-width="3.77" fill="#fff"/><use xlink:href="#w" transform="matrix(1,0,0,1,710,289) translate(70.24691358024691 17.77777777777778)"/><path d="M799.66 343.17c-1.14.1-2.05.34-2.96.8l-39.44 19.43c-2.16 1.02-3.64 2.84-4.1 5.23l-9.77 43.76c-.47 2.04-.13 4.08 1 5.9.13.23.24.34.47.57l27.28 35c1.48 1.94 3.52 2.97 5.9 2.97h43.9c2.38 0 4.42-1.03 5.9-2.96l27.28-35c1.48-1.94 2.05-4.2 1.48-6.6l-9.77-43.65c-.45-2.4-1.93-4.2-4.1-5.23l-39.43-19.44c-1.25-.57-2.4-.9-3.64-.8z" stroke="#000" stroke-opacity="0" stroke-width="3.83" fill="#326ce5"/><path d="M799.64 340c-1.2.12-2.16.36-3.12.84l-41.64 20.52c-2.28 1.08-3.84 3-4.32 5.52l-10.32 46.2c-.48 2.16-.12 4.32 1.08 6.24.12.24.24.36.48.6l28.8 36.96c1.56 2.04 3.72 3.12 6.24 3.12h46.32c2.52 0 4.68-1.08 6.24-3.12l28.8-36.96c1.56-2.04 2.16-4.44 1.56-6.84l-10.32-46.2c-.48-2.52-2.04-4.44-4.32-5.52l-41.64-20.52c-1.32-.6-2.52-.96-3.84-.84zm0 3.24c1.32-.12 2.4.12 3.6.72l39.6 19.44c2.04 1.08 3.48 2.88 4.08 5.28l9.72 43.68c.48 2.4 0 4.56-1.44 6.48l-27.36 35.04c-1.44 1.92-3.48 3-5.88 3h-43.92c-2.4 0-4.44-1.08-5.88-3l-27.36-35.04c-.12-.12-.24-.36-.36-.6-1.2-1.8-1.56-3.72-1.08-5.88l9.72-43.68c.6-2.4 1.92-4.2 4.08-5.28l39.6-19.44c.96-.48 1.8-.72 2.88-.84z" stroke="#000" stroke-opacity="0" stroke-width="3.83" fill="#fff"/><path d="M794.02 442.07c0 3.56-1.2 5.35-3.64 5.35-1.53 0-2.56-.6-3.08-1.8h-.05c.03.07.04.6.04 1.63v4h-1.66v-12.17c0-1.05-.02-1.74-.06-2.1h1.6l.02.3.05.7.02.66h.03c.3-.62.7-1.08 1.17-1.37.48-.3 1.1-.45 1.9-.45 1.23 0 2.14.42 2.74 1.27.62.83.92 2.15.92 3.97zm-1.73.03c0-1.42-.2-2.44-.56-3.05-.38-.62-.97-.92-1.78-.92-.66 0-1.17.15-1.54.43-.37.28-.65.73-.85 1.33-.2.58-.28 1.38-.28 2.33 0 1.35.2 2.33.6 2.97.43.63 1.1.95 2.04.95.82 0 1.4-.3 1.78-.92.38-.62.57-1.66.57-3.13zM804.48 442.1c0 1.8-.4 3.13-1.15 4-.76.88-1.88 1.32-3.33 1.32-1.45 0-2.54-.46-3.28-1.36-.74-.92-1.1-2.24-1.1-3.96 0-3.53 1.47-5.3 4.44-5.3 1.52 0 2.63.45 3.34 1.3.72.87 1.08 2.2 1.08 4zm-1.73 0c0-1.4-.22-2.43-.62-3.07-.4-.64-1.08-.95-2.04-.95-.98 0-1.68.3-2.1.97-.44.65-.66 1.67-.66 3.05 0 1.35.2 2.37.64 3.05.42.68 1.1 1 2 1 1 0 1.7-.3 2.12-.97.43-.66.65-1.7.65-3.08zM812.8 445.58c-.3.66-.7 1.12-1.22 1.4-.5.3-1.13.43-1.87.43-1.24 0-2.17-.43-2.76-1.3-.58-.86-.88-2.18-.88-3.94 0-3.57 1.22-5.35 3.65-5.35.76 0 1.38.16 1.9.44.5.28.9.74 1.2 1.35v-5.4h1.64v11.9c0 1.08.03 1.8.06 2.13h-1.58l-.06-.7c0-.37-.03-.68-.03-.95zm-5-3.48c0 1.44.18 2.46.54 3.07.37.62.96.94 1.8.94.93 0 1.6-.33 2.02-1 .43-.67.64-1.7.64-3.1 0-1.36-.2-2.36-.64-2.98-.42-.63-1.1-.96-2-.96-.84 0-1.44.33-1.82.97-.36.63-.55 1.65-.55 3.07z" stroke="#000" stroke-opacity="0" fill="#fff"/><path d="M775.92 380.2L800 373l24.1 7.2-24.1 7.2zM775.92 382.95v26.4l22.43 12.83.12-32.32zM824.08 382.95v26.4l-22.44 12.83-.1-32.32z" stroke="#000" stroke-opacity="0" stroke-width="3.77" fill="#fff"/><use xlink:href="#w" transform="matrix(1,0,0,1,710,469) translate(70.24691358024691 17.77777777777778)"/><path d="M799.66 523.17c-1.14.1-2.05.34-2.96.8l-39.44 19.43c-2.16 1.02-3.64 2.84-4.1 5.23l-9.77 43.76c-.47 2.04-.13 4.08 1 5.9.13.23.24.34.47.57l27.28 35c1.48 1.94 3.52 2.97 5.9 2.97h43.9c2.38 0 4.42-1.03 5.9-2.96l27.28-35c1.48-1.94 2.05-4.2 1.48-6.6l-9.77-43.65c-.45-2.4-1.93-4.2-4.1-5.23l-39.43-19.44c-1.25-.57-2.4-.9-3.64-.8z" stroke="#000" stroke-opacity="0" stroke-width="3.83" fill="#326ce5"/><path d="M799.64 520c-1.2.12-2.16.36-3.12.84l-41.64 20.52c-2.28 1.08-3.84 3-4.32 5.52l-10.32 46.2c-.48 2.16-.12 4.32 1.08 6.24.12.24.24.36.48.6l28.8 36.96c1.56 2.04 3.72 3.12 6.24 3.12h46.32c2.52 0 4.68-1.08 6.24-3.12l28.8-36.96c1.56-2.04 2.16-4.44 1.56-6.84l-10.32-46.2c-.48-2.52-2.04-4.44-4.32-5.52l-41.64-20.52c-1.32-.6-2.52-.96-3.84-.84zm0 3.24c1.32-.12 2.4.12 3.6.72l39.6 19.44c2.04 1.08 3.48 2.88 4.08 5.28l9.72 43.68c.48 2.4 0 4.56-1.44 6.48l-27.36 35.04c-1.44 1.92-3.48 3-5.88 3h-43.92c-2.4 0-4.44-1.08-5.88-3l-27.36-35.04c-.12-.12-.24-.36-.36-.6-1.2-1.8-1.56-3.72-1.08-5.88l9.72-43.68c.6-2.4 1.92-4.2 4.08-5.28l39.6-19.44c.96-.48 1.8-.72 2.88-.84z" stroke="#000" stroke-opacity="0" stroke-width="3.83" fill="#fff"/><path d="M794.02 622.07c0 3.56-1.2 5.35-3.64 5.35-1.53 0-2.56-.6-3.08-1.8h-.05c.03.07.04.6.04 1.63v4h-1.66v-12.17c0-1.05-.02-1.74-.06-2.1h1.6l.02.3.05.7.02.66h.03c.3-.62.7-1.08 1.17-1.37.48-.3 1.1-.45 1.9-.45 1.23 0 2.14.42 2.74 1.27.62.83.92 2.15.92 3.97zm-1.73.03c0-1.42-.2-2.44-.56-3.05-.38-.62-.97-.92-1.78-.92-.66 0-1.17.15-1.54.43-.37.28-.65.73-.85 1.33-.2.58-.28 1.38-.28 2.33 0 1.35.2 2.33.6 2.97.43.63 1.1.95 2.04.95.82 0 1.4-.3 1.78-.92.38-.62.57-1.66.57-3.13zM804.48 622.1c0 1.8-.4 3.13-1.15 4-.76.88-1.88 1.32-3.33 1.32-1.45 0-2.54-.46-3.28-1.36-.74-.92-1.1-2.24-1.1-3.96 0-3.53 1.47-5.3 4.44-5.3 1.52 0 2.63.45 3.34 1.3.72.87 1.08 2.2 1.08 4zm-1.73 0c0-1.4-.22-2.43-.62-3.07-.4-.64-1.08-.95-2.04-.95-.98 0-1.68.3-2.1.97-.44.65-.66 1.67-.66 3.05 0 1.35.2 2.37.64 3.05.42.68 1.1 1 2 1 1 0 1.7-.3 2.12-.97.43-.66.65-1.7.65-3.08zM812.8 625.58c-.3.66-.7 1.12-1.22 1.4-.5.3-1.13.43-1.87.43-1.24 0-2.17-.43-2.76-1.3-.58-.86-.88-2.18-.88-3.94 0-3.57 1.22-5.35 3.65-5.35.76 0 1.38.16 1.9.44.5.28.9.74 1.2 1.35v-5.4h1.64v11.9c0 1.08.03 1.8.06 2.13h-1.58l-.06-.7c0-.37-.03-.68-.03-.95zm-5-3.48c0 1.44.18 2.46.54 3.07.37.62.96.94 1.8.94.93 0 1.6-.33 2.02-1 .43-.67.64-1.7.64-3.1 0-1.36-.2-2.36-.64-2.98-.42-.63-1.1-.96-2-.96-.84 0-1.44.33-1.82.97-.36.63-.55 1.65-.55 3.07z" stroke="#000" stroke-opacity="0" fill="#fff"/><path d="M775.92 560.2L800 553l24.1 7.2-24.1 7.2zM775.92 562.95v26.4l22.43 12.83.12-32.32zM824.08 562.95v26.4l-22.44 12.83-.1-32.32z" stroke="#000" stroke-opacity="0" stroke-width="3.77" fill="#fff"/><use xlink:href="#w" transform="matrix(1,0,0,1,710,649) translate(70.24691358024691 17.77777777777778)"/><path d="M975.1 523.17c-1.15.1-2.06.34-2.96.8L932.7 543.4c-2.17 1.02-3.65 2.84-4.1 5.23l-9.78 43.76c-.45 2.04-.1 4.08 1.02 5.9.12.23.23.34.46.57l27.28 35c1.48 1.94 3.53 2.97 5.9 2.97h43.9c2.38 0 4.42-1.03 5.9-2.96l27.28-35c1.48-1.94 2.05-4.2 1.48-6.6l-9.77-43.65c-.46-2.4-1.94-4.2-4.1-5.23l-39.44-19.44c-1.25-.57-2.4-.9-3.64-.8z" stroke="#000" stroke-opacity="0" stroke-width="3.83" fill="#326ce5"/><path d="M975.07 520c-1.2.12-2.16.36-3.12.84l-41.64 20.52c-2.27 1.08-3.83 3-4.3 5.52l-10.33 46.2c-.48 2.16-.12 4.32 1.08 6.24.12.24.24.36.48.6l28.8 36.96c1.56 2.04 3.72 3.12 6.24 3.12h46.32c2.5 0 4.67-1.08 6.23-3.12l28.8-36.96c1.56-2.04 2.16-4.44 1.56-6.84l-10.33-46.2c-.48-2.52-2.04-4.44-4.32-5.52l-41.64-20.52c-1.3-.6-2.5-.96-3.83-.84zm0 3.24c1.32-.12 2.4.12 3.6.72l39.6 19.44c2.04 1.08 3.48 2.88 4.08 5.28l9.72 43.68c.48 2.4 0 4.56-1.44 6.48l-27.36 35.04c-1.44 1.92-3.48 3-5.88 3h-43.93c-2.4 0-4.44-1.08-5.88-3l-27.37-35.04c-.12-.12-.24-.36-.36-.6-1.2-1.8-1.56-3.72-1.08-5.88l9.7-43.68c.6-2.4 1.93-4.2 4.1-5.28l39.6-19.44c.95-.48 1.8-.72 2.87-.84z" stroke="#000" stroke-opacity="0" stroke-width="3.83" fill="#fff"/><path d="M947.14 622.07c0 1.36.2 2.36.63 3.02.4.65 1.04.97 1.87.97.6 0 1.08-.16 1.47-.5.4-.32.66-.82.75-1.5l1.66.1c-.12 1-.52 1.78-1.2 2.36-.7.6-1.56.88-2.6.88-1.4 0-2.46-.43-3.2-1.33-.72-.92-1.08-2.23-1.08-3.97 0-1.72.36-3.03 1.1-3.93.73-.9 1.78-1.36 3.15-1.36 1.02 0 1.86.3 2.52.83.67.54 1.1 1.28 1.26 2.23l-1.7.13c-.08-.57-.3-1.03-.65-1.36-.34-.33-.83-.5-1.47-.5-.88 0-1.5.3-1.9.9-.4.6-.6 1.6-.6 3.03zM955.3 627.23v-7.84c0-.73 0-1.52-.05-2.4h1.56c.06 1.16.1 1.86.1 2.1h.02c.26-.88.57-1.48.9-1.8.35-.33.84-.5 1.46-.5.22 0 .44.05.67.1v1.57c-.22-.06-.5-.1-.88-.1-.7 0-1.2.3-1.57.92-.36.6-.54 1.46-.54 2.6v5.33zM969.93 622.1c0 1.8-.38 3.13-1.14 4-.78.88-1.9 1.32-3.35 1.32-1.44 0-2.53-.46-3.28-1.36-.73-.92-1.1-2.24-1.1-3.96 0-3.53 1.48-5.3 4.45-5.3 1.5 0 2.62.45 3.34 1.3.72.87 1.07 2.2 1.07 4zm-1.73 0c0-1.4-.2-2.43-.62-3.07-.4-.64-1.08-.95-2.04-.95s-1.66.3-2.1.97c-.42.65-.65 1.67-.65 3.05 0 1.35.2 2.37.63 3.05.43.68 1.1 1 2 1 1 0 1.7-.3 2.12-.97.43-.66.65-1.7.65-3.08zM978.3 627.23v-6.5c0-.66-.07-1.18-.2-1.55-.13-.38-.33-.65-.6-.8-.3-.17-.7-.25-1.25-.25-.8 0-1.43.28-1.88.84-.46.56-.7 1.33-.7 2.33v5.93h-1.64v-8.04c0-1.2 0-1.93-.05-2.2h1.55l.03.26v.48c.03.18.04.5.05 1h.04c.38-.7.8-1.2 1.3-1.48.5-.3 1.13-.44 1.87-.44 1.1 0 1.9.28 2.4.84.5.55.75 1.47.75 2.76v6.8zM982.43 614.83v-1.62h1.65v1.63zm1.65 13.67c0 .96-.18 1.66-.55 2.1-.37.43-.92.64-1.65.64-.47 0-.86-.03-1.16-.1v-1.3l.56.07c.42 0 .72-.12.9-.33.16-.24.25-.67.25-1.34V617h1.65zM995 622.1c0 1.8-.37 3.13-1.14 4-.76.88-1.87 1.32-3.33 1.32-1.44 0-2.53-.46-3.28-1.36-.73-.92-1.1-2.24-1.1-3.96 0-3.53 1.47-5.3 4.44-5.3 1.5 0 2.62.45 3.34 1.3.7.87 1.07 2.2 1.07 4zm-1.72 0c0-1.4-.2-2.43-.62-3.07-.4-.64-1.08-.95-2.04-.95-.97 0-1.67.3-2.1.97-.43.65-.65 1.67-.65 3.05 0 1.35.22 2.37.64 3.05.44.68 1.1 1 2 1 1 0 1.72-.3 2.13-.97.43-.66.65-1.7.65-3.08zM1005.46 622.07c0 3.57-1.22 5.34-3.65 5.34-.74 0-1.37-.13-1.87-.4-.5-.28-.9-.74-1.2-1.36h-.03c0 .2 0 .5-.04.9l-.05.7h-1.58c.03-.35.05-1.06.05-2.13v-11.9h1.65v4c0 .4 0 .9-.03 1.44h.02c.3-.65.7-1.12 1.2-1.4.5-.3 1.15-.43 1.9-.43 1.24 0 2.16.45 2.75 1.32.6.87.9 2.2.9 3.95zm-1.73.06c0-1.44-.2-2.46-.55-3.07-.37-.63-.96-.94-1.8-.94-.92 0-1.6.33-2.03 1-.42.65-.63 1.68-.63 3.1 0 1.34.2 2.34.63 2.98.4.64 1.08.96 2.02.96.83 0 1.43-.32 1.8-.95.37-.63.56-1.65.56-3.07z" stroke="#000" stroke-opacity="0" fill="#fff"/><path d="M982.65 539.1v14.7h14.65v-14.7zm0 21.14v3.73c1.7-.4 3.5-.63 5.32-.63 3.34 0 6.45.7 9.33 2v-5.1zm-41.82.23v14.7h14.66v-14.7zm20.94 0v14.7h6.17c2.03-3.56 4.97-6.54 8.48-8.6v-6.1zm-21.05 21.37v14.7h14.65v-14.7zm20.93 0v14.7h4.76c-1.12-2.8-1.8-5.9-1.8-9.13 0-1.9.28-3.78.68-5.56z" stroke="#000" stroke-opacity="0" stroke-width="3.77" fill="#fff"/><path d="M988.87 566.4c-11.7 0-21.28 9.86-21.28 21.93s9.56 21.94 21.27 21.94c11.7 0 21.28-9.87 21.28-21.94 0-12.07-9.57-21.94-21.28-21.94zm8.94 31.15l-11.06-7.02v-13.17h3.2v11.4l9.57 5.93z" stroke="#000" stroke-opacity="0" stroke-width="1.21" fill="#fff"/><g><use xlink:href="#x" transform="matrix(1,0,0,1,885.4330708661416,649) translate(48.08641975308642 17.77777777777778)"/></g><g><path d="M931.78 615.85c1.5 2.94.35 6.56-2.6 8.07L558.74 813.9c-1.7.87-2.38 2.96-1.5 4.67.87 1.7.13 2.54-1.67 1.85l-8.62-3.28c-3.1-1.18-4.92-4.74-4.07-7.94l2.36-8.92c.5-1.86 1.6-1.97 2.48-.27.87 1.72 2.97 2.4 4.68 1.52l370.43-189.97c2.95-1.5 6.57-.34 8.08 2.6z" stroke="#5e5e5e" stroke-width="3" fill="#fff"/></g><path d="M535 310c0-2.76 2.24-5 5-5h173.5c1.38 0 2.5-1.12 2.5-2.5s.75-1.67 1.67-.64l3.32 3.68c2.2 2.46 2.2 6.46 0 8.92l-3.33 3.68c-.92 1.03-1.67.74-1.67-.64s-1.12-2.5-2.5-2.5H540c-2.76 0-5-2.24-5-5z" stroke="#5e5e5e" stroke-width="3" fill="#fff"/><g><path d="M1027 611.42c1.57-2.92 5.2-4.02 8.13-2.46l410.6 219.63c1.7.9 3.8.26 4.7-1.44.92-1.7 2.02-1.55 2.48.3l2.22 8.97c.8 3.22-1.1 6.74-4.2 7.87l-8.68 3.13c-1.8.66-2.54-.2-1.63-1.88.9-1.7.27-3.8-1.42-4.7l-410.6-219.63c-2.93-1.57-4.03-5.2-2.47-8.12z" stroke="#5e5e5e" stroke-width="3" fill="#fff"/></g><g><path d="M1430 760c-2.76 0-5-2.24-5-5V491.5c0-1.38-1.12-2.5-2.5-2.5s-1.67-.75-.64-1.67l3.68-3.32c2.46-2.2 6.46-2.2 8.92 0l3.68 3.33c1.03.92.74 1.67-.64 1.67s-2.5 1.12-2.5 2.5V755c0 2.76-2.24 5-5 5z" stroke="#5e5e5e" stroke-width="3" fill="#fff"/></g><path d="M1478.6 158.83h160v100h-160z" stroke="#5e5e5e" fill="#aefe7d"/><path d="M1622.6 208.83l-8.63 8.7-8.64-8.7 8.64-8.8zM1591.9 203.83l9.75 5-9.76 3.8z" stroke="#5e5e5e" fill="#5e5e5e"/><path d="M1524.2 198.83l18.4 10-18.4 8.7z" stroke="#818181" fill="#818181"/><path d="M1591.9 208.83h-49.3" stroke="#5e5e5e" fill="#aefe7d"/><path d="M1478.6 208.83h45.6" stroke="#818181" fill="#aefe7d"/><g><use xlink:href="#y" transform="matrix(1,0,0,1,1478.609986923619,263.83357468410486) translate(28.85802469135802 24.444444444444443)"/></g><path d="M1558.6 260.33v61.17" stroke="#5e5e5e" stroke-width="2" fill="none"/><path d="M1559.6 260.36h-2v-1.03h2z" fill="#5e5e5e"/><path d="M1558.6 336.76l-4.63-14.26h9.28z" stroke="#5e5e5e" stroke-width="2" fill="#5e5e5e"/><g><path d="M1470.02 201.8c0 2.75-2.24 5-5 5h-183.76c-1.4 0-2.5 1.1-2.5 2.5 0 1.37-.75 1.66-1.68.63l-3.3-3.68c-2.23-2.46-2.23-6.46 0-8.92l3.3-3.68c.93-1.03 1.68-.74 1.68.64 0 1.37 1.1 2.5 2.5 2.5h183.76c2.76 0 5 2.23 5 5z" stroke="#5e5e5e" stroke-width="3" fill="#fff"/></g><defs><path d="M212-179c-10-28-35-45-73-45-59 0-87 40-87 99 0 60 29 101 89 101 43 0 62-24 78-52l27 14C228-24 195 4 139 4 59 4 22-46 18-125c-6-104 99-153 187-111 19 9 31 26 39 46" id="z"/><path d="M24 0v-261h32V0H24" id="A"/><path d="M24-231v-30h32v30H24zM24 0v-190h32V0H24" id="B"/><path d="M100-194c63 0 86 42 84 106H49c0 40 14 67 53 68 26 1 43-12 49-29l28 8c-11 28-37 45-77 45C44 4 14-33 15-96c1-61 26-98 85-98zm52 81c6-60-76-77-97-28-3 7-6 17-6 28h103" id="C"/><path d="M117-194c89-4 53 116 60 194h-32v-121c0-31-8-49-39-48C34-167 62-67 57 0H25l-1-190h30c1 10-1 24 2 32 11-22 29-35 61-36" id="D"/><path d="M59-47c-2 24 18 29 38 22v24C64 9 27 4 27-40v-127H5v-23h24l9-43h21v43h35v23H59v120" id="E"/><g id="a"><use transform="matrix(0.05,0,0,0.05,0,0)" xlink:href="#z"/><use transform="matrix(0.05,0,0,0.05,12.950000000000001,0)" xlink:href="#A"/><use transform="matrix(0.05,0,0,0.05,16.900000000000002,0)" xlink:href="#B"/><use transform="matrix(0.05,0,0,0.05,20.85,0)" xlink:href="#C"/><use transform="matrix(0.05,0,0,0.05,30.85,0)" xlink:href="#D"/><use transform="matrix(0.05,0,0,0.05,40.85,0)" xlink:href="#E"/></g><path d="M205 0l-28-72H64L36 0H1l101-248h38L239 0h-34zm-38-99l-47-123c-12 45-31 82-46 123h93" id="F"/><path d="M115-194c55 1 70 41 70 98S169 2 115 4C84 4 66-9 55-30l1 105H24l-1-265h31l2 30c10-21 28-34 59-34zm-8 174c40 0 45-34 45-75s-6-73-45-74c-42 0-51 32-51 76 0 43 10 73 51 73" id="G"/><path d="M135-143c-3-34-86-38-87 0 15 53 115 12 119 90S17 21 10-45l28-5c4 36 97 45 98 0-10-56-113-15-118-90-4-57 82-63 122-42 12 7 21 19 24 35" id="H"/><g id="b"><use transform="matrix(0.05,0,0,0.05,0,0)" xlink:href="#F"/><use transform="matrix(0.05,0,0,0.05,12,0)" xlink:href="#G"/><use transform="matrix(0.05,0,0,0.05,22,0)" xlink:href="#G"/><use transform="matrix(0.05,0,0,0.05,32,0)" xlink:href="#H"/></g><path fill="#333" d="M205 0l-28-72H64L36 0H1l101-248h38L239 0h-34zm-38-99l-47-123c-12 45-31 82-46 123h93" id="I"/><path fill="#333" d="M115-194c55 1 70 41 70 98S169 2 115 4C84 4 66-9 55-30l1 105H24l-1-265h31l2 30c10-21 28-34 59-34zm-8 174c40 0 45-34 45-75s-6-73-45-74c-42 0-51 32-51 76 0 43 10 73 51 73" id="J"/><path fill="#333" d="M24 0v-261h32V0H24" id="K"/><path fill="#333" d="M24-231v-30h32v30H24zM24 0v-190h32V0H24" id="L"/><path fill="#333" d="M96-169c-40 0-48 33-48 73s9 75 48 75c24 0 41-14 43-38l32 2c-6 37-31 61-74 61-59 0-76-41-82-99-10-93 101-131 147-64 4 7 5 14 7 22l-32 3c-4-21-16-35-41-35" id="M"/><path fill="#333" d="M141-36C126-15 110 5 73 4 37 3 15-17 15-53c-1-64 63-63 125-63 3-35-9-54-41-54-24 1-41 7-42 31l-33-3c5-37 33-52 76-52 45 0 72 20 72 64v82c-1 20 7 32 28 27v20c-31 9-61-2-59-35zM48-53c0 20 12 33 32 33 41-3 63-29 60-74-43 2-92-5-92 41" id="N"/><path fill="#333" d="M59-47c-2 24 18 29 38 22v24C64 9 27 4 27-40v-127H5v-23h24l9-43h21v43h35v23H59v120" id="O"/><path fill="#333" d="M100-194c62-1 85 37 85 99 1 63-27 99-86 99S16-35 15-95c0-66 28-99 85-99zM99-20c44 1 53-31 53-75 0-43-8-75-51-75s-53 32-53 75 10 74 51 75" id="P"/><path fill="#333" d="M117-194c89-4 53 116 60 194h-32v-121c0-31-8-49-39-48C34-167 62-67 57 0H25l-1-190h30c1 10-1 24 2 32 11-22 29-35 61-36" id="Q"/><g id="c"><use transform="matrix(0.06172839506172839,0,0,0.06172839506172839,0,0)" xlink:href="#I"/><use transform="matrix(0.06172839506172839,0,0,0.06172839506172839,14.814814814814813,0)" xlink:href="#J"/><use transform="matrix(0.06172839506172839,0,0,0.06172839506172839,27.160493827160494,0)" xlink:href="#J"/><use transform="matrix(0.06172839506172839,0,0,0.06172839506172839,39.50617283950617,0)" xlink:href="#K"/><use transform="matrix(0.06172839506172839,0,0,0.06172839506172839,44.382716049382715,0)" xlink:href="#L"/><use transform="matrix(0.06172839506172839,0,0,0.06172839506172839,49.25925925925926,0)" xlink:href="#M"/><use transform="matrix(0.06172839506172839,0,0,0.06172839506172839,60.37037037037037,0)" xlink:href="#N"/><use transform="matrix(0.06172839506172839,0,0,0.06172839506172839,72.71604938271605,0)" xlink:href="#O"/><use transform="matrix(0.06172839506172839,0,0,0.06172839506172839,78.88888888888889,0)" xlink:href="#L"/><use transform="matrix(0.06172839506172839,0,0,0.06172839506172839,83.76543209876543,0)" xlink:href="#P"/><use transform="matrix(0.06172839506172839,0,0,0.06172839506172839,96.11111111111111,0)" xlink:href="#Q"/></g><path fill="#333" d="M30 0v-248h33v221h125V0H30" id="R"/><path fill="#333" d="M85-194c31 0 48 13 60 33l-1-100h32l1 261h-30c-2-10 0-23-3-31C134-8 116 4 85 4 32 4 16-35 15-94c0-66 23-100 70-100zm9 24c-40 0-46 34-46 75 0 40 6 74 45 74 42 0 51-32 51-76 0-42-9-74-50-73" id="S"/><g id="d"><use transform="matrix(0.06172839506172839,0,0,0.06172839506172839,0,0)" xlink:href="#R"/><use transform="matrix(0.06172839506172839,0,0,0.06172839506172839,12.345679012345679,0)" xlink:href="#P"/><use transform="matrix(0.06172839506172839,0,0,0.06172839506172839,24.691358024691358,0)" xlink:href="#N"/><use transform="matrix(0.06172839506172839,0,0,0.06172839506172839,37.03703703703704,0)" xlink:href="#S"/></g><path fill="#333" d="M160-131c35 5 61 23 61 61C221 17 115-2 30 0v-248c76 3 177-17 177 60 0 33-19 50-47 57zm-97-11c50-1 110 9 110-42 0-47-63-36-110-37v79zm0 115c55-2 124 14 124-45 0-56-70-42-124-44v89" id="T"/><path fill="#333" d="M100-194c63 0 86 42 84 106H49c0 40 14 67 53 68 26 1 43-12 49-29l28 8c-11 28-37 45-77 45C44 4 14-33 15-96c1-61 26-98 85-98zm52 81c6-60-76-77-97-28-3 7-6 17-6 28h103" id="U"/><path fill="#333" d="M114-163C36-179 61-72 57 0H25l-1-190h30c1 12-1 29 2 39 6-27 23-49 58-41v29" id="V"/><g id="e"><use transform="matrix(0.06172839506172839,0,0,0.06172839506172839,0,0)" xlink:href="#T"/><use transform="matrix(0.06172839506172839,0,0,0.06172839506172839,14.814814814814813,0)" xlink:href="#N"/><use transform="matrix(0.06172839506172839,0,0,0.06172839506172839,27.160493827160494,0)" xlink:href="#K"/><use transform="matrix(0.06172839506172839,0,0,0.06172839506172839,32.03703703703704,0)" xlink:href="#N"/><use transform="matrix(0.06172839506172839,0,0,0.06172839506172839,44.382716049382715,0)" xlink:href="#Q"/><use transform="matrix(0.06172839506172839,0,0,0.06172839506172839,56.72839506172839,0)" xlink:href="#M"/><use transform="matrix(0.06172839506172839,0,0,0.06172839506172839,67.8395061728395,0)" xlink:href="#U"/><use transform="matrix(0.06172839506172839,0,0,0.06172839506172839,80.18518518518519,0)" xlink:href="#V"/></g><path d="M68-38c1 34 0 65-14 84H32c9-13 17-26 17-46H33v-38h35" id="W"/><path d="M30-248c118-7 216 8 213 122C240-48 200 0 122 0H30v-248zM63-27c89 8 146-16 146-99s-60-101-146-95v194" id="X"/><path d="M114-163C36-179 61-72 57 0H25l-1-190h30c1 12-1 29 2 39 6-27 23-49 58-41v29" id="Y"/><path d="M115-194c53 0 69 39 70 98 0 66-23 100-70 100C84 3 66-7 56-30L54 0H23l1-261h32v101c10-23 28-34 59-34zm-8 174c40 0 45-34 45-75 0-40-5-75-45-74-42 0-51 32-51 76 0 43 10 73 51 73" id="Z"/><path d="M84 4C-5 8 30-112 23-190h32v120c0 31 7 50 39 49 72-2 45-101 50-169h31l1 190h-30c-1-10 1-25-2-33-11 22-28 36-60 37" id="aa"/><path d="M85-194c31 0 48 13 60 33l-1-100h32l1 261h-30c-2-10 0-23-3-31C134-8 116 4 85 4 32 4 16-35 15-94c0-66 23-100 70-100zm9 24c-40 0-46 34-46 75 0 40 6 74 45 74 42 0 51-32 51-76 0-42-9-74-50-73" id="ab"/><g id="f"><use transform="matrix(0.07469135802469135,0,0,0.07469135802469135,0,0)" xlink:href="#W"/><use transform="matrix(0.07469135802469135,0,0,0.07469135802469135,7.469135802469134,0)" xlink:href="#X"/><use transform="matrix(0.07469135802469135,0,0,0.07469135802469135,26.81419753086419,0)" xlink:href="#B"/><use transform="matrix(0.07469135802469135,0,0,0.07469135802469135,32.71481481481481,0)" xlink:href="#H"/><use transform="matrix(0.07469135802469135,0,0,0.07469135802469135,46.15925925925925,0)" xlink:href="#E"/><use transform="matrix(0.07469135802469135,0,0,0.07469135802469135,53.62839506172838,0)" xlink:href="#Y"/><use transform="matrix(0.07469135802469135,0,0,0.07469135802469135,62.516666666666644,0)" xlink:href="#B"/><use transform="matrix(0.07469135802469135,0,0,0.07469135802469135,68.41728395061727,0)" xlink:href="#Z"/><use transform="matrix(0.07469135802469135,0,0,0.07469135802469135,83.35555555555554,0)" xlink:href="#aa"/><use transform="matrix(0.07469135802469135,0,0,0.07469135802469135,98.2938271604938,0)" xlink:href="#E"/><use transform="matrix(0.07469135802469135,0,0,0.07469135802469135,105.76296296296294,0)" xlink:href="#C"/><use transform="matrix(0.07469135802469135,0,0,0.07469135802469135,120.70123456790121,0)" xlink:href="#ab"/></g><path d="M210-169c-67 3-38 105-44 169h-31v-121c0-29-5-50-35-48C34-165 62-65 56 0H25l-1-190h30c1 10-1 24 2 32 10-44 99-50 107 0 11-21 27-35 58-36 85-2 47 119 55 194h-31v-121c0-29-5-49-35-48" id="ac"/><path d="M141-36C126-15 110 5 73 4 37 3 15-17 15-53c-1-64 63-63 125-63 3-35-9-54-41-54-24 1-41 7-42 31l-33-3c5-37 33-52 76-52 45 0 72 20 72 64v82c-1 20 7 32 28 27v20c-31 9-61-2-59-35zM48-53c0 20 12 33 32 33 41-3 63-29 60-74-43 2-92-5-92 41" id="ad"/><path d="M177-190C167-65 218 103 67 71c-23-6-38-20-44-43l32-5c15 47 100 32 89-28v-30C133-14 115 1 83 1 29 1 15-40 15-95c0-56 16-97 71-98 29-1 48 16 59 35 1-10 0-23 2-32h30zM94-22c36 0 50-32 50-73 0-42-14-75-50-75-39 0-46 34-46 75s6 73 46 73" id="ae"/><g id="g"><use transform="matrix(0.07469135802469135,0,0,0.07469135802469135,0,0)" xlink:href="#ac"/><use transform="matrix(0.07469135802469135,0,0,0.07469135802469135,22.33271604938271,0)" xlink:href="#C"/><use transform="matrix(0.07469135802469135,0,0,0.07469135802469135,37.270987654320976,0)" xlink:href="#H"/><use transform="matrix(0.07469135802469135,0,0,0.07469135802469135,50.71543209876541,0)" xlink:href="#H"/><use transform="matrix(0.07469135802469135,0,0,0.07469135802469135,64.15987654320986,0)" xlink:href="#ad"/><use transform="matrix(0.07469135802469135,0,0,0.07469135802469135,79.09814814814814,0)" xlink:href="#ae"/><use transform="matrix(0.07469135802469135,0,0,0.07469135802469135,94.03641975308639,0)" xlink:href="#C"/></g><path d="M145-31C134-9 116 4 85 4 32 4 16-35 15-94c0-59 17-99 70-100 32-1 48 14 60 33 0-11-1-24 2-32h30l-1 268h-32zM93-21c41 0 51-33 51-76s-8-73-50-73c-40 0-46 35-46 75s5 74 45 74" id="af"/><g id="h"><use transform="matrix(0.07469135802469135,0,0,0.07469135802469135,0,0)" xlink:href="#af"/><use transform="matrix(0.07469135802469135,0,0,0.07469135802469135,14.938271604938269,0)" xlink:href="#aa"/><use transform="matrix(0.07469135802469135,0,0,0.07469135802469135,29.876543209876537,0)" xlink:href="#C"/><use transform="matrix(0.07469135802469135,0,0,0.07469135802469135,44.81481481481481,0)" xlink:href="#aa"/><use transform="matrix(0.07469135802469135,0,0,0.07469135802469135,59.753086419753075,0)" xlink:href="#C"/></g><path fill="#333" d="M230 0l2-204L168 0h-37L68-204 70 0H24v-248h70l56 185 57-185h69V0h-46" id="ag"/><path fill="#333" d="M133-34C117-15 103 5 69 4 32 3 11-16 11-54c-1-60 55-63 116-61 1-26-3-47-28-47-18 1-26 9-28 27l-52-2c7-38 36-58 82-57s74 22 75 68l1 82c-1 14 12 18 25 15v27c-30 8-71 5-69-32zm-48 3c29 0 43-24 42-57-32 0-66-3-65 30 0 17 8 27 23 27" id="ah"/><path fill="#333" d="M135-194c53 0 70 44 70 98 0 56-19 98-73 100-31 1-45-17-59-34 3 33 2 69 2 105H25l-1-265h48c2 10 0 23 3 31 11-24 29-35 60-35zM114-30c33 0 39-31 40-66 0-38-9-64-40-64-56 0-55 130 0 130" id="ai"/><g id="j"><use transform="matrix(0.09259259259259256,0,0,0.09259259259259256,0,0)" xlink:href="#ag"/><use transform="matrix(0.09259259259259256,0,0,0.09259259259259256,27.685185185185176,0)" xlink:href="#ah"/><use transform="matrix(0.09259259259259256,0,0,0.09259259259259256,46.20370370370369,0)" xlink:href="#ai"/></g><path fill="#333" d="M240-174c0 40-23 61-54 70L253 0h-59l-57-94H76V0H24v-248c93 4 217-23 216 74zM76-134c48-2 112 12 112-38 0-48-66-32-112-35v73" id="aj"/><path fill="#333" d="M185-48c-13 30-37 53-82 52C43 2 14-33 14-96s30-98 90-98c62 0 83 45 84 108H66c0 31 8 55 39 56 18 0 30-7 34-22zm-45-69c5-46-57-63-70-21-2 6-4 13-4 21h74" id="ak"/><path fill="#333" d="M88-194c31-1 46 15 58 34l-1-101h50l1 261h-48c-2-10 0-23-3-31C134-8 116 4 84 4 32 4 16-41 15-95c0-56 19-97 73-99zm17 164c33 0 40-30 41-66 1-37-9-64-41-64s-38 30-39 65c0 43 13 65 39 65" id="al"/><path fill="#333" d="M85 4C-2 5 27-109 22-190h50c7 57-23 150 33 157 60-5 35-97 40-157h50l1 190h-47c-2-12 1-28-3-38-12 25-28 42-61 42" id="am"/><path fill="#333" d="M190-63c-7 42-38 67-86 67-59 0-84-38-90-98-12-110 154-137 174-36l-49 2c-2-19-15-32-35-32-30 0-35 28-38 64-6 74 65 87 74 30" id="an"/><g id="k"><use transform="matrix(0.09259259259259256,0,0,0.09259259259259256,0,0)" xlink:href="#aj"/><use transform="matrix(0.09259259259259256,0,0,0.09259259259259256,23.981481481481474,0)" xlink:href="#ak"/><use transform="matrix(0.09259259259259256,0,0,0.09259259259259256,42.499999999999986,0)" xlink:href="#al"/><use transform="matrix(0.09259259259259256,0,0,0.09259259259259256,62.77777777777776,0)" xlink:href="#am"/><use transform="matrix(0.09259259259259256,0,0,0.09259259259259256,83.05555555555553,0)" xlink:href="#an"/><use transform="matrix(0.09259259259259256,0,0,0.09259259259259256,101.57407407407403,0)" xlink:href="#ak"/></g><path fill="#333" d="M135-194c87-1 58 113 63 194h-50c-7-57 23-157-34-157-59 0-34 97-39 157H25l-1-190h47c2 12-1 28 3 38 12-26 28-41 61-42" id="ao"/><path fill="#333" d="M110-194c64 0 96 36 96 99 0 64-35 99-97 99-61 0-95-36-95-99 0-62 34-99 96-99zm-1 164c35 0 45-28 45-65 0-40-10-65-43-65-34 0-45 26-45 65 0 36 10 65 43 65" id="ap"/><path fill="#333" d="M137-138c1-29-70-34-71-4 15 46 118 7 119 86 1 83-164 76-172 9l43-7c4 19 20 25 44 25 33 8 57-30 24-41C81-84 22-81 20-136c-2-80 154-74 161-7" id="aq"/><g id="l"><use transform="matrix(0.09259259259259256,0,0,0.09259259259259256,0,0)" xlink:href="#ao"/><use transform="matrix(0.09259259259259256,0,0,0.09259259259259256,20.27777777777777,0)" xlink:href="#ap"/><use transform="matrix(0.09259259259259256,0,0,0.09259259259259256,40.55555555555554,0)" xlink:href="#al"/><use transform="matrix(0.09259259259259256,0,0,0.09259259259259256,60.833333333333314,0)" xlink:href="#ak"/><use transform="matrix(0.09259259259259256,0,0,0.09259259259259256,79.35185185185182,0)" xlink:href="#aq"/></g><path fill="#333" d="M24-248c120-7 223 5 221 122C244-46 201 0 124 0H24v-248zM76-40c74 7 117-18 117-86 0-67-45-88-117-82v168" id="ar"/><path fill="#333" d="M135-150c-39-12-60 13-60 57V0H25l-1-190h47c2 13-1 29 3 40 6-28 27-53 61-41v41" id="as"/><path fill="#333" d="M135-194c52 0 70 43 70 98 0 56-19 99-73 100-30 1-46-15-58-35L72 0H24l1-261h50v104c11-23 29-37 60-37zM114-30c31 0 40-27 40-66 0-37-7-63-39-63s-41 28-41 65c0 36 8 64 40 64" id="at"/><path fill="#333" d="M144 0l-44-69L55 0H2l70-98-66-92h53l41 62 40-62h54l-67 91 71 99h-54" id="au"/><g id="m"><use transform="matrix(0.09259259259259256,0,0,0.09259259259259256,0,0)" xlink:href="#ar"/><use transform="matrix(0.09259259259259256,0,0,0.09259259259259256,23.981481481481474,0)" xlink:href="#as"/><use transform="matrix(0.09259259259259256,0,0,0.09259259259259256,36.94444444444443,0)" xlink:href="#ap"/><use transform="matrix(0.09259259259259256,0,0,0.09259259259259256,57.2222222222222,0)" xlink:href="#ai"/><use transform="matrix(0.09259259259259256,0,0,0.09259259259259256,77.49999999999997,0)" xlink:href="#at"/><use transform="matrix(0.09259259259259256,0,0,0.09259259259259256,97.77777777777774,0)" xlink:href="#ap"/><use transform="matrix(0.09259259259259256,0,0,0.09259259259259256,118.05555555555551,0)" xlink:href="#au"/></g><path fill="#333" d="M121-226c-27-7-43 5-38 36h38v33H83V0H34v-157H6v-33h28c-9-59 32-81 87-68v32" id="av"/><g id="n"><use transform="matrix(0.09259259259259256,0,0,0.09259259259259256,0,0)" xlink:href="#av"/><use transform="matrix(0.09259259259259256,0,0,0.09259259259259256,11.018518518518515,0)" xlink:href="#ap"/><use transform="matrix(0.09259259259259256,0,0,0.09259259259259256,31.296296296296283,0)" xlink:href="#as"/></g><path fill="#333" d="M25 0v-261h50V0H25" id="aw"/><g id="o"><use transform="matrix(0.09259259259259256,0,0,0.09259259259259256,0,0)" xlink:href="#aq"/><use transform="matrix(0.09259259259259256,0,0,0.09259259259259256,18.518518518518512,0)" xlink:href="#ah"/><use transform="matrix(0.09259259259259256,0,0,0.09259259259259256,37.037037037037024,0)" xlink:href="#aw"/><use transform="matrix(0.09259259259259256,0,0,0.09259259259259256,46.296296296296276,0)" xlink:href="#ak"/><use transform="matrix(0.09259259259259256,0,0,0.09259259259259256,64.81481481481478,0)" xlink:href="#aq"/></g><g id="p"><use transform="matrix(0.09259259259259256,0,0,0.09259259259259256,0,0)" xlink:href="#av"/><use transform="matrix(0.09259259259259256,0,0,0.09259259259259256,11.018518518518515,0)" xlink:href="#ak"/><use transform="matrix(0.09259259259259256,0,0,0.09259259259259256,29.537037037037027,0)" xlink:href="#ak"/><use transform="matrix(0.09259259259259256,0,0,0.09259259259259256,48.055555555555536,0)" xlink:href="#al"/></g><path fill="#333" d="M185-189c-5-48-123-54-124 2 14 75 158 14 163 119 3 78-121 87-175 55-17-10-28-26-33-46l33-7c5 56 141 63 141-1 0-78-155-14-162-118-5-82 145-84 179-34 5 7 8 16 11 25" id="ax"/><path fill="#333" d="M135-143c-3-34-86-38-87 0 15 53 115 12 119 90S17 21 10-45l28-5c4 36 97 45 98 0-10-56-113-15-118-90-4-57 82-63 122-42 12 7 21 19 24 35" id="ay"/><path fill="#333" d="M-5 72V49h209v23H-5" id="az"/><path fill="#333" d="M63-220v92h138v28H63V0H30v-248h175v28H63" id="aA"/><path fill="#333" d="M27 0v-27h64v-190l-56 39v-29l58-41h29v221h61V0H27" id="aB"/><path fill="#333" d="M155-56V0h-30v-56H8v-25l114-167h33v167h35v25h-35zm-30-156c-27 46-58 90-88 131h88v-131" id="aC"/><path fill="#333" d="M33-154v-36h34v36H33zM33 0v-36h34V0H33" id="aD"/><path fill="#333" d="M101-251c68 0 85 55 85 127S166 4 100 4C33 4 14-52 14-124c0-73 17-127 87-127zm-1 229c47 0 54-49 54-102s-4-102-53-102c-51 0-55 48-55 102 0 53 5 102 54 102" id="aE"/><g id="r"><use transform="matrix(0.06172839506172839,0,0,0.06172839506172839,0,0)" xlink:href="#ax"/><use transform="matrix(0.06172839506172839,0,0,0.06172839506172839,14.814814814814813,0)" xlink:href="#N"/><use transform="matrix(0.06172839506172839,0,0,0.06172839506172839,27.160493827160494,0)" xlink:href="#K"/><use transform="matrix(0.06172839506172839,0,0,0.06172839506172839,32.03703703703704,0)" xlink:href="#U"/><use transform="matrix(0.06172839506172839,0,0,0.06172839506172839,44.382716049382715,0)" xlink:href="#ay"/><use transform="matrix(0.06172839506172839,0,0,0.06172839506172839,55.49382716049382,0)" xlink:href="#az"/><use transform="matrix(0.06172839506172839,0,0,0.06172839506172839,67.8395061728395,0)" xlink:href="#aA"/><use transform="matrix(0.06172839506172839,0,0,0.06172839506172839,81.35802469135803,0)" xlink:href="#U"/><use transform="matrix(0.06172839506172839,0,0,0.06172839506172839,93.70370370370371,0)" xlink:href="#U"/><use transform="matrix(0.06172839506172839,0,0,0.06172839506172839,106.0493827160494,0)" xlink:href="#S"/><use transform="matrix(0.06172839506172839,0,0,0.06172839506172839,118.39506172839508,0)" xlink:href="#az"/><use transform="matrix(0.06172839506172839,0,0,0.06172839506172839,130.74074074074076,0)" xlink:href="#aB"/><use transform="matrix(0.06172839506172839,0,0,0.06172839506172839,143.08641975308643,0)" xlink:href="#aC"/><use transform="matrix(0.06172839506172839,0,0,0.06172839506172839,155.4320987654321,0)" xlink:href="#aD"/><use transform="matrix(0.06172839506172839,0,0,0.06172839506172839,161.60493827160494,0)" xlink:href="#aE"/><use transform="matrix(0.06172839506172839,0,0,0.06172839506172839,173.9506172839506,0)" xlink:href="#aE"/></g><path fill="#333" d="M54-142c48-35 137-8 131 61C196 18 31 33 14-55l32-4c7 23 22 37 52 37 35-1 51-22 54-58 4-55-73-65-99-34H22l8-134h141v27H59" id="aF"/><g id="s"><use transform="matrix(0.06172839506172839,0,0,0.06172839506172839,0,0)" xlink:href="#ax"/><use transform="matrix(0.06172839506172839,0,0,0.06172839506172839,14.814814814814813,0)" xlink:href="#N"/><use transform="matrix(0.06172839506172839,0,0,0.06172839506172839,27.160493827160494,0)" xlink:href="#K"/><use transform="matrix(0.06172839506172839,0,0,0.06172839506172839,32.03703703703704,0)" xlink:href="#U"/><use transform="matrix(0.06172839506172839,0,0,0.06172839506172839,44.382716049382715,0)" xlink:href="#ay"/><use transform="matrix(0.06172839506172839,0,0,0.06172839506172839,55.49382716049382,0)" xlink:href="#az"/><use transform="matrix(0.06172839506172839,0,0,0.06172839506172839,67.8395061728395,0)" xlink:href="#aA"/><use transform="matrix(0.06172839506172839,0,0,0.06172839506172839,81.35802469135803,0)" xlink:href="#U"/><use transform="matrix(0.06172839506172839,0,0,0.06172839506172839,93.70370370370371,0)" xlink:href="#U"/><use transform="matrix(0.06172839506172839,0,0,0.06172839506172839,106.0493827160494,0)" xlink:href="#S"/><use transform="matrix(0.06172839506172839,0,0,0.06172839506172839,118.39506172839508,0)" xlink:href="#az"/><use transform="matrix(0.06172839506172839,0,0,0.06172839506172839,130.74074074074076,0)" xlink:href="#aB"/><use transform="matrix(0.06172839506172839,0,0,0.06172839506172839,143.08641975308643,0)" xlink:href="#aF"/><use transform="matrix(0.06172839506172839,0,0,0.06172839506172839,155.4320987654321,0)" xlink:href="#aD"/><use transform="matrix(0.06172839506172839,0,0,0.06172839506172839,161.60493827160494,0)" xlink:href="#aE"/><use transform="matrix(0.06172839506172839,0,0,0.06172839506172839,173.9506172839506,0)" xlink:href="#aE"/></g><path fill="#333" d="M110-160c48 1 74 30 74 79 0 53-28 85-80 85-65 0-83-55-86-122-5-90 50-162 133-122 14 7 22 21 27 39l-31 6c-5-40-67-38-82-6-9 19-15 44-15 74 11-20 30-34 60-33zm-7 138c34 0 49-23 49-58s-16-56-50-56c-29 0-50 16-49 49 1 36 15 65 50 65" id="aG"/><g id="t"><use transform="matrix(0.06172839506172839,0,0,0.06172839506172839,0,0)" xlink:href="#ax"/><use transform="matrix(0.06172839506172839,0,0,0.06172839506172839,14.814814814814813,0)" xlink:href="#N"/><use transform="matrix(0.06172839506172839,0,0,0.06172839506172839,27.160493827160494,0)" xlink:href="#K"/><use transform="matrix(0.06172839506172839,0,0,0.06172839506172839,32.03703703703704,0)" xlink:href="#U"/><use transform="matrix(0.06172839506172839,0,0,0.06172839506172839,44.382716049382715,0)" xlink:href="#ay"/><use transform="matrix(0.06172839506172839,0,0,0.06172839506172839,55.49382716049382,0)" xlink:href="#az"/><use transform="matrix(0.06172839506172839,0,0,0.06172839506172839,67.8395061728395,0)" xlink:href="#aA"/><use transform="matrix(0.06172839506172839,0,0,0.06172839506172839,81.35802469135803,0)" xlink:href="#U"/><use transform="matrix(0.06172839506172839,0,0,0.06172839506172839,93.70370370370371,0)" xlink:href="#U"/><use transform="matrix(0.06172839506172839,0,0,0.06172839506172839,106.0493827160494,0)" xlink:href="#S"/><use transform="matrix(0.06172839506172839,0,0,0.06172839506172839,118.39506172839508,0)" xlink:href="#az"/><use transform="matrix(0.06172839506172839,0,0,0.06172839506172839,130.74074074074076,0)" xlink:href="#aB"/><use transform="matrix(0.06172839506172839,0,0,0.06172839506172839,143.08641975308643,0)" xlink:href="#aG"/><use transform="matrix(0.06172839506172839,0,0,0.06172839506172839,155.4320987654321,0)" xlink:href="#aD"/><use transform="matrix(0.06172839506172839,0,0,0.06172839506172839,161.60493827160494,0)" xlink:href="#aE"/><use transform="matrix(0.06172839506172839,0,0,0.06172839506172839,173.9506172839506,0)" xlink:href="#aE"/></g><path fill="#333" d="M212-179c-10-28-35-45-73-45-59 0-87 40-87 99 0 60 29 101 89 101 43 0 62-24 78-52l27 14C228-24 195 4 139 4 59 4 22-46 18-125c-6-104 99-153 187-111 19 9 31 26 39 46" id="aH"/><path fill="#333" d="M106-169C34-169 62-67 57 0H25v-261h32l-1 103c12-21 28-36 61-36 89 0 53 116 60 194h-32v-121c2-32-8-49-39-48" id="aI"/><g id="u"><use transform="matrix(0.06172839506172839,0,0,0.06172839506172839,0,0)" xlink:href="#aH"/><use transform="matrix(0.06172839506172839,0,0,0.06172839506172839,15.987654320987653,0)" xlink:href="#N"/><use transform="matrix(0.06172839506172839,0,0,0.06172839506172839,28.333333333333332,0)" xlink:href="#M"/><use transform="matrix(0.06172839506172839,0,0,0.06172839506172839,39.44444444444444,0)" xlink:href="#aI"/><use transform="matrix(0.06172839506172839,0,0,0.06172839506172839,51.79012345679012,0)" xlink:href="#U"/></g><path fill="#333" d="M190 0L58-211 59 0H30v-248h39L202-35l-2-213h31V0h-41" id="aJ"/><g id="v"><use transform="matrix(0.06172839506172839,0,0,0.06172839506172839,0,0)" xlink:href="#aJ"/><use transform="matrix(0.06172839506172839,0,0,0.06172839506172839,15.987654320987653,0)" xlink:href="#P"/><use transform="matrix(0.06172839506172839,0,0,0.06172839506172839,28.333333333333332,0)" xlink:href="#S"/><use transform="matrix(0.06172839506172839,0,0,0.06172839506172839,40.67901234567901,0)" xlink:href="#U"/></g><path fill="#333" d="M30-248c87 1 191-15 191 75 0 78-77 80-158 76V0H30v-248zm33 125c57 0 124 11 124-50 0-59-68-47-124-48v98" id="aK"/><g id="w"><use transform="matrix(0.06172839506172839,0,0,0.06172839506172839,0,0)" xlink:href="#aK"/><use transform="matrix(0.06172839506172839,0,0,0.06172839506172839,14.814814814814813,0)" xlink:href="#P"/><use transform="matrix(0.06172839506172839,0,0,0.06172839506172839,27.160493827160494,0)" xlink:href="#S"/></g><path fill="#333" d="M153-248C145-148 188 4 80 4 36 3 13-21 6-62l32-5c4 25 16 42 43 43 27 0 39-20 39-49v-147H72v-28h81" id="aL"/><path fill="#333" d="M115-194c53 0 69 39 70 98 0 66-23 100-70 100C84 3 66-7 56-30L54 0H23l1-261h32v101c10-23 28-34 59-34zm-8 174c40 0 45-34 45-75 0-40-5-75-45-74-42 0-51 32-51 76 0 43 10 73 51 73" id="aM"/><g id="x"><use transform="matrix(0.06172839506172839,0,0,0.06172839506172839,0,0)" xlink:href="#aH"/><use transform="matrix(0.06172839506172839,0,0,0.06172839506172839,15.987654320987653,0)" xlink:href="#V"/><use transform="matrix(0.06172839506172839,0,0,0.06172839506172839,23.333333333333332,0)" xlink:href="#P"/><use transform="matrix(0.06172839506172839,0,0,0.06172839506172839,35.67901234567901,0)" xlink:href="#Q"/><use transform="matrix(0.06172839506172839,0,0,0.06172839506172839,48.02469135802469,0)" xlink:href="#aL"/><use transform="matrix(0.06172839506172839,0,0,0.06172839506172839,59.1358024691358,0)" xlink:href="#P"/><use transform="matrix(0.06172839506172839,0,0,0.06172839506172839,71.48148148148148,0)" xlink:href="#aM"/></g><path fill="#333" d="M84 4C-5 8 30-112 23-190h32v120c0 31 7 50 39 49 72-2 45-101 50-169h31l1 190h-30c-1-10 1-25-2-33-11 22-28 36-60 37" id="aN"/><path fill="#333" d="M210-169c-67 3-38 105-44 169h-31v-121c0-29-5-50-35-48C34-165 62-65 56 0H25l-1-190h30c1 10-1 24 2 32 10-44 99-50 107 0 11-21 27-35 58-36 85-2 47 119 55 194h-31v-121c0-29-5-49-35-48" id="aO"/><g id="y"><use transform="matrix(0.06172839506172839,0,0,0.06172839506172839,0,0)" xlink:href="#aH"/><use transform="matrix(0.06172839506172839,0,0,0.06172839506172839,15.987654320987653,0)" xlink:href="#P"/><use transform="matrix(0.06172839506172839,0,0,0.06172839506172839,28.333333333333332,0)" xlink:href="#Q"/><use transform="matrix(0.06172839506172839,0,0,0.06172839506172839,40.67901234567901,0)" xlink:href="#ay"/><use transform="matrix(0.06172839506172839,0,0,0.06172839506172839,51.79012345679013,0)" xlink:href="#aN"/><use transform="matrix(0.06172839506172839,0,0,0.06172839506172839,64.13580246913581,0)" xlink:href="#aO"/><use transform="matrix(0.06172839506172839,0,0,0.06172839506172839,82.5925925925926,0)" xlink:href="#U"/><use transform="matrix(0.06172839506172839,0,0,0.06172839506172839,94.93827160493828,0)" xlink:href="#V"/></g></defs></g></svg>