<svg xmlns="http://www.w3.org/2000/svg" xmlns:xlink="http://www.w3.org/1999/xlink" xmlns:lucid="lucid" width="1560" height="1131"><g transform="translate(0 0)" lucid:page-tab-id="0_0"><path d="M0 0h1870.87v1322.83H0z" fill="#fff"/><path d="M1040 160h240v60h-240z" fill="none"/><use xlink:href="#a" transform="matrix(1,0,0,1,1040,160) translate(15.802469135802468 17.77777777777778)"/><use xlink:href="#b" transform="matrix(1,0,0,1,1040,160) translate(49.01234567901235 17.77777777777778)"/><use xlink:href="#c" transform="matrix(1,0,0,1,1040,160) translate(134.1358024691358 17.77777777777778)"/><use xlink:href="#d" transform="matrix(1,0,0,1,1040,160) translate(171.17283950617286 17.77777777777778)"/><use xlink:href="#e" transform="matrix(1,0,0,1,1040,160) translate(3.5493827160493794 44.44444444444444)"/><use xlink:href="#f" transform="matrix(1,0,0,1,1040,160) translate(61.51234567901235 44.44444444444444)"/><use xlink:href="#g" transform="matrix(1,0,0,1,1040,160) translate(110.83333333333334 44.44444444444444)"/><use xlink:href="#h" transform="matrix(1,0,0,1,1040,160) translate(208.17901234567904 44.44444444444444)"/><use xlink:href="#i" transform="matrix(1,0,0,1,1040,160) translate(71.2962962962963 71.11111111111111)"/><use xlink:href="#j" transform="matrix(1,0,0,1,1040,160) translate(100.92592592592594 71.11111111111111)"/><path d="M280 706c0-3.3 2.7-6 6-6h368c3.3 0 6 2.7 6 6v139c0 3.3-2.7 6-6 6H286c-3.3 0-6-2.7-6-6z" fill="#fff"/><path d="M280 706c0-3.3 2.7-6 6-6h368c3.3 0 6 2.7 6 6v139c0 3.3-2.7 6-6 6H286c-3.3 0-6-2.7-6-6zM280 740h380" stroke="#5e5e5e" stroke-width="3" fill="none"/><use xlink:href="#k" transform="matrix(1,0,0,1,290,700) translate(106.1111111111111 24.444444444444443)"/><use xlink:href="#l" transform="matrix(1,0,0,1,290,700) translate(157.9012345679012 24.444444444444443)"/><use xlink:href="#m" transform="matrix(1,0,0,1,285,742.5) translate(0 20.444444444444443)"/><use xlink:href="#n" transform="matrix(1,0,0,1,285,742.5) translate(19.1358024691358 20.444444444444443)"/><use xlink:href="#o" transform="matrix(1,0,0,1,285,742.5) translate(276.48148148148147 20.444444444444443)"/><path d="M800 706c0-3.3 2.7-6 6-6h368c3.3 0 6 2.7 6 6v139c0 3.3-2.7 6-6 6H806c-3.3 0-6-2.7-6-6z" fill="#fff"/><path d="M800 706c0-3.3 2.7-6 6-6h368c3.3 0 6 2.7 6 6v139c0 3.3-2.7 6-6 6H806c-3.3 0-6-2.7-6-6zM800 740h380" stroke="#5e5e5e" stroke-width="3" fill="none"/><use xlink:href="#p" transform="matrix(1,0,0,1,810,700) translate(81.35802469135804 24.444444444444443)"/><use xlink:href="#m" transform="matrix(1,0,0,1,805,742.5) translate(0 20.444444444444443)"/><use xlink:href="#n" transform="matrix(1,0,0,1,805,742.5) translate(19.1358024691358 20.444444444444443)"/><use xlink:href="#o" transform="matrix(1,0,0,1,805,742.5) translate(276.48148148148147 20.444444444444443)"/><path d="M640 146c0-3.3 2.7-6 6-6h368c3.3 0 6 2.7 6 6v139c0 3.3-2.7 6-6 6H646c-3.3 0-6-2.7-6-6z" fill="#fff"/><path d="M640 146c0-3.3 2.7-6 6-6h368c3.3 0 6 2.7 6 6v139c0 3.3-2.7 6-6 6H646c-3.3 0-6-2.7-6-6zM640 180h380" stroke="#5e5e5e" stroke-width="3" fill="none"/><use xlink:href="#q" transform="matrix(1,0,0,1,650,140) translate(102.34567901234568 24.444444444444443)"/><use xlink:href="#r" transform="matrix(1,0,0,1,645,182.5) translate(0 20.444444444444443)"/><use xlink:href="#s" transform="matrix(1,0,0,1,645,182.5) translate(19.1358024691358 20.444444444444443)"/><use xlink:href="#t" transform="matrix(1,0,0,1,645,182.5) translate(190.1851851851852 20.444444444444443)"/><use xlink:href="#r" transform="matrix(1,0,0,1,645,219.5) translate(0 20.444444444444443)"/><use xlink:href="#u" transform="matrix(1,0,0,1,645,219.5) translate(19.1358024691358 20.444444444444443)"/><path d="M823.12 406.8c-.97.45-1.87.65-2.93.64-3.72 0-5.56-2.45-5.56-7.34-.14-2.03.32-3.8 1.43-5.5 1.05-1.32 2.53-1.95 4.2-1.83.97-.02 1.8.13 2.7.5v1.7c-.83-.3-1.58-.46-2.47-.5-1.14-.1-2.16.37-2.85 1.28-.74 1.3-1.02 2.6-.9 4.1v.5c-.12 1.48.16 2.77.87 4.08.67.9 1.68 1.36 2.8 1.28.97-.07 1.78-.2 2.7-.52zM832.34 407.23l-1-3.88h-4.33l-.96 3.88h-2.06l4.1-14.38h2.18l4.16 14.38zm-4.96-5.4h3.58l-1.78-7.04zM843.83 406.8c-.95.45-1.85.65-2.9.64-3.72 0-5.58-2.45-5.58-7.34-.14-2.03.33-3.8 1.43-5.5 1.07-1.32 2.54-1.95 4.23-1.83.97 0 1.78.17 2.68.55v1.7c-.83-.32-1.57-.48-2.45-.55-1.15-.1-2.17.37-2.87 1.28-.73 1.3-1 2.6-.9 4.1v.5c-.12 1.48.16 2.77.9 4.08.65.9 1.65 1.36 2.78 1.28.96-.07 1.77-.2 2.7-.52zM853.3 407.23v-6.53h-5.22v6.53h-2v-14.38h2v6.2h5.23v-6.2h2.02v14.38zM858.43 407.23v-14.38h7.3v1.6h-5.3V399h4.35v1.62h-4.36v5h5.26v1.6z" stroke="#fff" stroke-opacity="0" fill="#3b48cc"/><path d="M869.04 460h-58c-6 .08-10.96-4.8-11.04-10.88v-58.08c-.08-6 4.8-10.96 10.88-11.04H869.12c6.08.08 10.96 5.04 10.88 11.04v58.08c-.08 6-4.96 10.88-10.96 10.88zm-58-76.56h-.08c-4.24 0-7.6 3.44-7.52 7.6v58.08c0 4.16 3.44 7.52 7.6 7.44h58.08c4.16 0 7.52-3.36 7.6-7.52v-58-.08c-.08-4.24-3.52-7.6-7.68-7.52z" stroke="#fff" stroke-opacity="0" fill="#3b48cc"/><use xlink:href="#v" transform="matrix(1,0,0,1,770,469) translate(8.333333333333343 17.77777777777778)"/><use xlink:href="#w" transform="matrix(1,0,0,1,770,469) translate(78.64197530864197 17.77777777777778)"/><path d="M863.12 446.8c-.97.45-1.87.65-2.93.64-3.72 0-5.56-2.45-5.56-7.34-.14-2.03.32-3.8 1.43-5.5 1.05-1.32 2.53-1.95 4.2-1.83.97-.02 1.8.13 2.7.5v1.7c-.83-.3-1.58-.46-2.47-.5-1.14-.1-2.16.37-2.85 1.28-.74 1.3-1.02 2.6-.9 4.1v.5c-.12 1.48.16 2.77.87 4.08.67.9 1.68 1.36 2.8 1.28.97-.07 1.78-.2 2.7-.52zM872.34 447.23l-1-3.88h-4.33l-.96 3.88h-2.06l4.1-14.38h2.18l4.16 14.38zm-4.96-5.4h3.58l-1.78-7.04zM883.83 446.8c-.95.45-1.85.65-2.9.64-3.72 0-5.58-2.45-5.58-7.34-.14-2.03.33-3.8 1.43-5.5 1.07-1.32 2.54-1.95 4.23-1.83.97 0 1.78.17 2.68.55v1.7c-.83-.32-1.57-.48-2.45-.55-1.15-.1-2.17.37-2.87 1.28-.73 1.3-1 2.6-.9 4.1v.5c-.12 1.48.16 2.77.9 4.08.65.9 1.65 1.36 2.78 1.28.96-.07 1.77-.2 2.7-.52zM893.3 447.23v-6.53h-5.22v6.53h-2v-14.38h2v6.2h5.23v-6.2h2.02v14.38zM898.43 447.23v-14.38h7.3v1.6h-5.3V439h4.35v1.62h-4.36v5h5.26v1.6z" stroke="#fff" stroke-opacity="0" fill="#3b48cc"/><path d="M909.04 500h-58c-6 .08-10.96-4.8-11.04-10.88v-58.08c-.08-6 4.8-10.96 10.88-11.04H909.12c6.08.08 10.96 5.04 10.88 11.04v58.08c-.08 6-4.96 10.88-10.96 10.88zm-58-76.56h-.08c-4.24 0-7.6 3.44-7.52 7.6v58.08c0 4.16 3.44 7.52 7.6 7.44h58.08c4.16 0 7.52-3.36 7.6-7.52v-58-.08c-.08-4.24-3.52-7.6-7.68-7.52z" stroke="#fff" stroke-opacity="0" fill="#3b48cc"/><use xlink:href="#v" transform="matrix(1,0,0,1,810,509) translate(8.333333333333343 17.77777777777778)"/><use xlink:href="#w" transform="matrix(1,0,0,1,810,509) translate(78.64197530864197 17.77777777777778)"/><path d="M903.12 486.8c-.97.45-1.87.65-2.93.64-3.72 0-5.56-2.45-5.56-7.34-.14-2.03.32-3.8 1.43-5.5 1.05-1.32 2.53-1.95 4.2-1.83.97-.02 1.8.13 2.7.5v1.7c-.83-.3-1.58-.46-2.47-.5-1.14-.1-2.16.37-2.85 1.28-.74 1.3-1.02 2.6-.9 4.1v.5c-.12 1.48.16 2.77.87 4.08.67.9 1.68 1.36 2.8 1.28.97-.07 1.78-.2 2.7-.52zM912.34 487.23l-1-3.88h-4.33l-.96 3.88h-2.06l4.1-14.38h2.18l4.16 14.38zm-4.96-5.4h3.58l-1.78-7.04zM923.83 486.8c-.95.45-1.85.65-2.9.64-3.72 0-5.58-2.45-5.58-7.34-.14-2.03.33-3.8 1.43-5.5 1.07-1.32 2.54-1.95 4.23-1.83.97 0 1.78.17 2.68.55v1.7c-.83-.32-1.57-.48-2.45-.55-1.15-.1-2.17.37-2.87 1.28-.73 1.3-1 2.6-.9 4.1v.5c-.12 1.48.16 2.77.9 4.08.65.9 1.65 1.36 2.78 1.28.96-.07 1.77-.2 2.7-.52zM933.3 487.23v-6.53h-5.22v6.53h-2v-14.38h2v6.2h5.23v-6.2h2.02v14.38zM938.43 487.23v-14.38h7.3v1.6h-5.3V479h4.35v1.62h-4.36v5h5.26v1.6z" stroke="#fff" stroke-opacity="0" fill="#3b48cc"/><path d="M949.04 540h-58c-6 .08-10.96-4.8-11.04-10.88v-58.08c-.08-6 4.8-10.96 10.88-11.04H949.12c6.08.08 10.96 5.04 10.88 11.04v58.08c-.08 6-4.96 10.88-10.96 10.88zm-58-76.56h-.08c-4.24 0-7.6 3.44-7.52 7.6v58.08c0 4.16 3.44 7.52 7.6 7.44h58.08c4.16 0 7.52-3.36 7.6-7.52v-58-.08c-.08-4.24-3.52-7.6-7.68-7.52z" stroke="#fff" stroke-opacity="0" fill="#3b48cc"/><use xlink:href="#v" transform="matrix(1,0,0,1,850,549) translate(8.333333333333343 17.77777777777778)"/><use xlink:href="#w" transform="matrix(1,0,0,1,850,549) translate(78.64197530864197 17.77777777777778)"/><path d="M1160 275c0-3.3 2.7-6 6-6h368c3.3 0 6 2.7 6 6v139c0 3.3-2.7 6-6 6h-368c-3.3 0-6-2.7-6-6z" fill="#fff"/><path d="M1160 275c0-3.3 2.7-6 6-6h368c3.3 0 6 2.7 6 6v139c0 3.3-2.7 6-6 6h-368c-3.3 0-6-2.7-6-6zM1160 309h380" stroke="#5e5e5e" stroke-width="3" fill="none"/><use xlink:href="#x" transform="matrix(1,0,0,1,1170,269) translate(83.36419753086422 24.444444444444443)"/><use xlink:href="#r" transform="matrix(1,0,0,1,1165,311.5) translate(0 20.444444444444443)"/><use xlink:href="#y" transform="matrix(1,0,0,1,1165,311.5) translate(19.1358024691358 20.444444444444443)"/><path d="M980.1 209.77c1.3-3.05 4.83-4.46 7.88-3.15l191.27 81.97c1.6.67 3.42-.06 4.1-1.65.68-1.58 1.68-1.55 2.24.1l2.47 7.27c1.06 3.14-.5 6.8-3.52 8.2l-6.98 3.23c-1.56.72-2.28.02-1.6-1.56.68-1.6-.06-3.44-1.64-4.12L983.05 218.1c-3.04-1.3-4.45-4.82-3.15-7.87zM860.25 240c3.3 0 6 2.7 6 6v109.63c0 1.72 1.4 3.12 3.12 3.12 1.73 0 2.1.94.8 2.1l-5.7 5.14c-2.47 2.2-6.47 2.2-8.93 0l-5.72-5.16c-1.28-1.15-.92-2.1.8-2.1 1.73 0 3.13-1.4 3.13-3.1V246c0-3.3 2.7-6 6-6z" stroke="#5e5e5e" stroke-width="3" fill="#fff"/><path d="M872.5 300h240v60h-240z" fill="none"/><use xlink:href="#z" transform="matrix(1,0,0,1,872.5,300) translate(21.975308641975317 21.111111111111114)"/><use xlink:href="#A" transform="matrix(1,0,0,1,872.5,300) translate(55.1851851851852 21.111111111111114)"/><use xlink:href="#c" transform="matrix(1,0,0,1,872.5,300) translate(121.7283950617284 21.111111111111114)"/><use xlink:href="#B" transform="matrix(1,0,0,1,872.5,300) translate(158.76543209876544 21.111111111111114)"/><use xlink:href="#C" transform="matrix(1,0,0,1,872.5,300) translate(42.345679012345684 47.777777777777786)"/><use xlink:href="#c" transform="matrix(1,0,0,1,872.5,300) translate(92.83950617283952 47.777777777777786)"/><use xlink:href="#j" transform="matrix(1,0,0,1,872.5,300) translate(129.87654320987656 47.777777777777786)"/><path d="M20 146c0-3.3 2.7-6 6-6h288c3.3 0 6 2.7 6 6v139c0 3.3-2.7 6-6 6H26c-3.3 0-6-2.7-6-6z" fill="#fff"/><path d="M20 146c0-3.3 2.7-6 6-6h288c3.3 0 6 2.7 6 6v139c0 3.3-2.7 6-6 6H26c-3.3 0-6-2.7-6-6zM20 180h300" stroke="#5e5e5e" stroke-width="3" fill="none"/><g><use xlink:href="#D" transform="matrix(1,0,0,1,30,140) translate(24.691358024691382 24.444444444444443)"/></g><g><use xlink:href="#E" transform="matrix(1,0,0,1,25,182.5) translate(0 20.444444444444443)"/></g><g><use xlink:href="#F" transform="matrix(1,0,0,1,25,219.5) translate(0 20.444444444444443)"/><use xlink:href="#G" transform="matrix(1,0,0,1,25,219.5) translate(49.32098765432099 20.444444444444443)"/><use xlink:href="#H" transform="matrix(1,0,0,1,25,219.5) translate(68.45679012345678 20.444444444444443)"/><use xlink:href="#I" transform="matrix(1,0,0,1,25,219.5) translate(86.9753086419753 20.444444444444443)"/><use xlink:href="#I" transform="matrix(1,0,0,1,25,219.5) translate(101.79012345679011 20.444444444444443)"/><use xlink:href="#I" transform="matrix(1,0,0,1,25,219.5) translate(116.60493827160492 20.444444444444443)"/><use xlink:href="#J" transform="matrix(1,0,0,1,25,219.5) translate(131.41975308641975 20.444444444444443)"/></g><path d="M320 229.75c0-3.3 2.7-6 6-6h299.63c1.72 0 3.12-1.4 3.12-3.13 0-1.72.94-2.08 2.1-.8l5.14 5.72c2.2 2.46 2.2 6.46 0 8.92l-5.16 5.72c-1.15 1.28-2.1.92-2.1-.8 0-1.73-1.4-3.13-3.12-3.13H326c-3.3 0-6-2.7-6-6z" stroke="#5e5e5e" stroke-width="3" fill="#fff"/><path d="M360 100h240v60H360z" fill="none"/><g><use xlink:href="#K" transform="matrix(1,0,0,1,360,100) translate(13.271604938271622 17.77777777777778)"/><use xlink:href="#c" transform="matrix(1,0,0,1,360,100) translate(72.53086419753087 17.77777777777778)"/><use xlink:href="#L" transform="matrix(1,0,0,1,360,100) translate(109.56790123456791 17.77777777777778)"/><use xlink:href="#M" transform="matrix(1,0,0,1,360,100) translate(158.88888888888889 17.77777777777778)"/><use xlink:href="#N" transform="matrix(1,0,0,1,360,100) translate(1.6049382716049507 44.44444444444444)"/><use xlink:href="#O" transform="matrix(1,0,0,1,360,100) translate(37.34567901234569 44.44444444444444)"/><use xlink:href="#c" transform="matrix(1,0,0,1,360,100) translate(150.80246913580248 44.44444444444444)"/><use xlink:href="#P" transform="matrix(1,0,0,1,360,100) translate(187.8395061728395 44.44444444444444)"/><use xlink:href="#Q" transform="matrix(1,0,0,1,360,100) translate(12.067901234567898 71.11111111111111)"/><use xlink:href="#R" transform="matrix(1,0,0,1,360,100) translate(115.64814814814815 71.11111111111111)"/><use xlink:href="#S" transform="matrix(1,0,0,1,360,100) translate(197.0679012345679 71.11111111111111)"/><use xlink:href="#T" transform="matrix(1,0,0,1,360,100) translate(7.7777777777777715 97.77777777777777)"/><use xlink:href="#U" transform="matrix(1,0,0,1,360,100) translate(124.87654320987654 97.77777777777777)"/><use xlink:href="#V" transform="matrix(1,0,0,1,360,100) translate(155.74074074074073 97.77777777777777)"/><use xlink:href="#W" transform="matrix(1,0,0,1,360,100) translate(84.87654320987653 124.44444444444446)"/></g><path d="M160 20h1020v60H160z" fill="none"/><g><use xlink:href="#X" transform="matrix(1,0,0,1,160,20) translate(265.2777777777778 36.666666666666664)"/><use xlink:href="#Y" transform="matrix(1,0,0,1,160,20) translate(333.61111111111114 36.666666666666664)"/><use xlink:href="#Z" transform="matrix(1,0,0,1,160,20) translate(409.35185185185185 36.666666666666664)"/><use xlink:href="#aa" transform="matrix(1,0,0,1,160,20) translate(462.8703703703703 36.666666666666664)"/><use xlink:href="#ab" transform="matrix(1,0,0,1,160,20) translate(601.2962962962963 36.666666666666664)"/><use xlink:href="#ac" transform="matrix(1,0,0,1,160,20) translate(660.3703703703703 36.666666666666664)"/></g><path d="M140 620h1020v60H140z" fill="none"/><g><use xlink:href="#ad" transform="matrix(1,0,0,1,140,620) translate(220.99074074074076 35.77777777777778)"/><use xlink:href="#ae" transform="matrix(1,0,0,1,140,620) translate(280.212962962963 35.77777777777778)"/><use xlink:href="#af" transform="matrix(1,0,0,1,140,620) translate(345.85493827160496 35.77777777777778)"/><use xlink:href="#ag" transform="matrix(1,0,0,1,140,620) translate(392.23765432098764 35.77777777777778)"/><use xlink:href="#ah" transform="matrix(1,0,0,1,140,620) translate(443.4351851851852 35.77777777777778)"/><use xlink:href="#ai" transform="matrix(1,0,0,1,140,620) translate(558.5895061728395 35.77777777777778)"/><use xlink:href="#aj" transform="matrix(1,0,0,1,140,620) translate(638.8364197530864 35.77777777777778)"/><use xlink:href="#ak" transform="matrix(1,0,0,1,140,620) translate(750.9413580246913 35.77777777777778)"/></g><path d="M802.5 966c0-3.3 2.7-6 6-6h368c3.3 0 6 2.7 6 6v139c0 3.3-2.7 6-6 6h-368c-3.3 0-6-2.7-6-6z" fill="#fff"/><path d="M802.5 966c0-3.3 2.7-6 6-6h368c3.3 0 6 2.7 6 6v139c0 3.3-2.7 6-6 6h-368c-3.3 0-6-2.7-6-6zM802.5 1000h380" stroke="#5e5e5e" stroke-width="3" fill="none"/><g><use xlink:href="#q" transform="matrix(1,0,0,1,812.5,960) translate(102.34567901234568 24.444444444444443)"/></g><g><use xlink:href="#r" transform="matrix(1,0,0,1,807.5,1002.5) translate(0 20.444444444444443)"/><use xlink:href="#s" transform="matrix(1,0,0,1,807.5,1002.5) translate(19.1358024691358 20.444444444444443)"/><use xlink:href="#t" transform="matrix(1,0,0,1,807.5,1002.5) translate(190.1851851851852 20.444444444444443)"/></g><g><use xlink:href="#r" transform="matrix(1,0,0,1,807.5,1039.5) translate(0 20.444444444444443)"/><use xlink:href="#u" transform="matrix(1,0,0,1,807.5,1039.5) translate(19.1358024691358 20.444444444444443)"/></g><path d="M652.5 792.25c0-3.3 2.7-6 6-6h129.63c1.72 0 3.12-1.4 3.12-3.13 0-1.72.94-2.08 2.1-.8l5.14 5.72c2.2 2.46 2.2 6.46 0 8.92l-5.16 5.72c-1.15 1.28-2.1.92-2.1-.8 0-1.73-1.4-3.13-3.12-3.13H658.5c-3.3 0-6-2.7-6-6z" stroke="#5e5e5e" stroke-width="3" fill="#fff"/><path d="M60 780h34.68v34.68H60zm41.04 0h37.92v34.68h-37.92zm44.28 0H180v34.68h-34.68zM60 821.04h34.68v34.8H60zm41.04 0h37.92v34.8h-37.92zm44.28 0H180v34.8h-34.68zM60 862.08h34.68V900H60zm41.04 0h37.92V900h-37.92zm44.28 0H180V900h-34.68z" stroke="#000" stroke-opacity="0" stroke-width="3.04" fill="#0072c6"/><path d="M61.44 781.53h117.03v117.03H61.44V781.53z" stroke="#000" stroke-opacity="0" stroke-width="0" fill-opacity="0"/><g><use xlink:href="#al" transform="matrix(1,0,0,1,30,909) translate(44.075 14.4)"/><use xlink:href="#am" transform="matrix(1,0,0,1,30,909) translate(94.92500000000001 14.4)"/></g><path d="M160 817.25c0-3.3 2.7-6 6-6h129.63c1.72 0 3.12-1.4 3.12-3.13 0-1.72.94-2.08 2.1-.8l5.14 5.72c2.2 2.46 2.2 6.46 0 8.92l-5.16 5.72c-1.15 1.28-2.1.92-2.1-.8 0-1.73-1.4-3.13-3.12-3.13H166c-3.3 0-6-2.7-6-6z" stroke="#5e5e5e" stroke-width="3" fill="#fff"/><g><path d="M1027.75 840c3.3 0 6 2.7 6 6v109.63c0 1.72 1.4 3.12 3.12 3.12 1.73 0 2.1.94.8 2.1l-5.7 5.14c-2.47 2.2-6.47 2.2-8.93 0l-5.72-5.16c-1.28-1.15-.92-2.1.8-2.1 1.73 0 3.13-1.4 3.13-3.12V846c0-3.3 2.7-6 6-6z" stroke="#5e5e5e" stroke-width="3" fill="#fff"/></g><defs><path fill="#7ab648" d="M87 75C49 33 22-17 22-94c0-76 28-126 65-167h31c-38 41-64 92-64 168S80 34 118 75H87" id="an"/><path fill="#7ab648" d="M101-251c82-7 93 87 43 132L82-64C71-53 59-42 53-27h129V0H18c2-99 128-94 128-182 0-28-16-43-45-43s-46 15-49 41l-32-3c6-41 34-60 81-64" id="ao"/><path fill="#7ab648" d="M33-261c38 41 65 92 65 168S71 34 33 75H2C39 34 66-17 66-93S39-220 2-261h31" id="ap"/><g id="a"><use transform="matrix(0.06172839506172839,0,0,0.06172839506172839,0,0)" xlink:href="#an"/><use transform="matrix(0.06172839506172839,0,0,0.06172839506172839,7.345679012345679,0)" xlink:href="#ao"/><use transform="matrix(0.06172839506172839,0,0,0.06172839506172839,19.691358024691358,0)" xlink:href="#ap"/></g><path fill="#7ab648" d="M63-220v92h138v28H63V0H30v-248h175v28H63" id="aq"/><path fill="#7ab648" d="M100-194c63 0 86 42 84 106H49c0 40 14 67 53 68 26 1 43-12 49-29l28 8c-11 28-37 45-77 45C44 4 14-33 15-96c1-61 26-98 85-98zm52 81c6-60-76-77-97-28-3 7-6 17-6 28h103" id="ar"/><path fill="#7ab648" d="M59-47c-2 24 18 29 38 22v24C64 9 27 4 27-40v-127H5v-23h24l9-43h21v43h35v23H59v120" id="as"/><path fill="#7ab648" d="M96-169c-40 0-48 33-48 73s9 75 48 75c24 0 41-14 43-38l32 2c-6 37-31 61-74 61-59 0-76-41-82-99-10-93 101-131 147-64 4 7 5 14 7 22l-32 3c-4-21-16-35-41-35" id="at"/><path fill="#7ab648" d="M106-169C34-169 62-67 57 0H25v-261h32l-1 103c12-21 28-36 61-36 89 0 53 116 60 194h-32v-121c2-32-8-49-39-48" id="au"/><path fill="#7ab648" d="M135-143c-3-34-86-38-87 0 15 53 115 12 119 90S17 21 10-45l28-5c4 36 97 45 98 0-10-56-113-15-118-90-4-57 82-63 122-42 12 7 21 19 24 35" id="av"/><g id="b"><use transform="matrix(0.06172839506172839,0,0,0.06172839506172839,0,0)" xlink:href="#aq"/><use transform="matrix(0.06172839506172839,0,0,0.06172839506172839,13.518518518518517,0)" xlink:href="#ar"/><use transform="matrix(0.06172839506172839,0,0,0.06172839506172839,25.864197530864196,0)" xlink:href="#as"/><use transform="matrix(0.06172839506172839,0,0,0.06172839506172839,32.03703703703704,0)" xlink:href="#at"/><use transform="matrix(0.06172839506172839,0,0,0.06172839506172839,43.14814814814815,0)" xlink:href="#au"/><use transform="matrix(0.06172839506172839,0,0,0.06172839506172839,55.49382716049383,0)" xlink:href="#ar"/><use transform="matrix(0.06172839506172839,0,0,0.06172839506172839,67.8395061728395,0)" xlink:href="#av"/></g><g id="c"><use transform="matrix(0.06172839506172839,0,0,0.06172839506172839,0,0)" xlink:href="#as"/><use transform="matrix(0.06172839506172839,0,0,0.06172839506172839,6.172839506172839,0)" xlink:href="#au"/><use transform="matrix(0.06172839506172839,0,0,0.06172839506172839,18.51851851851852,0)" xlink:href="#ar"/></g><path fill="#7ab648" d="M24 0v-261h32V0H24" id="aw"/><path fill="#7ab648" d="M141-36C126-15 110 5 73 4 37 3 15-17 15-53c-1-64 63-63 125-63 3-35-9-54-41-54-24 1-41 7-42 31l-33-3c5-37 33-52 76-52 45 0 72 20 72 64v82c-1 20 7 32 28 27v20c-31 9-61-2-59-35zM48-53c0 20 12 33 32 33 41-3 63-29 60-74-43 2-92-5-92 41" id="ax"/><g id="d"><use transform="matrix(0.06172839506172839,0,0,0.06172839506172839,0,0)" xlink:href="#aw"/><use transform="matrix(0.06172839506172839,0,0,0.06172839506172839,4.876543209876543,0)" xlink:href="#ax"/><use transform="matrix(0.06172839506172839,0,0,0.06172839506172839,17.22222222222222,0)" xlink:href="#as"/><use transform="matrix(0.06172839506172839,0,0,0.06172839506172839,23.39506172839506,0)" xlink:href="#ar"/><use transform="matrix(0.06172839506172839,0,0,0.06172839506172839,35.74074074074074,0)" xlink:href="#av"/><use transform="matrix(0.06172839506172839,0,0,0.06172839506172839,46.85185185185185,0)" xlink:href="#as"/></g><g id="e"><use transform="matrix(0.06172839506172839,0,0,0.06172839506172839,0,0)" xlink:href="#av"/><use transform="matrix(0.06172839506172839,0,0,0.06172839506172839,11.11111111111111,0)" xlink:href="#ax"/><use transform="matrix(0.06172839506172839,0,0,0.06172839506172839,23.45679012345679,0)" xlink:href="#aw"/><use transform="matrix(0.06172839506172839,0,0,0.06172839506172839,28.333333333333336,0)" xlink:href="#ar"/><use transform="matrix(0.06172839506172839,0,0,0.06172839506172839,40.67901234567901,0)" xlink:href="#av"/></g><path fill="#7ab648" d="M114-163C36-179 61-72 57 0H25l-1-190h30c1 12-1 29 2 39 6-27 23-49 58-41v29" id="ay"/><path fill="#7ab648" d="M117-194c89-4 53 116 60 194h-32v-121c0-31-8-49-39-48C34-167 62-67 57 0H25l-1-190h30c1 10-1 24 2 32 11-22 29-35 61-36" id="az"/><path fill="#7ab648" d="M143 0L79-87 56-68V0H24v-261h32v163l83-92h37l-77 82L181 0h-38" id="aA"/><g id="f"><use transform="matrix(0.06172839506172839,0,0,0.06172839506172839,0,0)" xlink:href="#ay"/><use transform="matrix(0.06172839506172839,0,0,0.06172839506172839,7.345679012345679,0)" xlink:href="#ax"/><use transform="matrix(0.06172839506172839,0,0,0.06172839506172839,19.691358024691358,0)" xlink:href="#az"/><use transform="matrix(0.06172839506172839,0,0,0.06172839506172839,32.03703703703704,0)" xlink:href="#aA"/></g><path fill="#7ab648" d="M84 4C-5 8 30-112 23-190h32v120c0 31 7 50 39 49 72-2 45-101 50-169h31l1 190h-30c-1-10 1-25-2-33-11 22-28 36-60 37" id="aB"/><path fill="#7ab648" d="M210-169c-67 3-38 105-44 169h-31v-121c0-29-5-50-35-48C34-165 62-65 56 0H25l-1-190h30c1 10-1 24 2 32 10-44 99-50 107 0 11-21 27-35 58-36 85-2 47 119 55 194h-31v-121c0-29-5-49-35-48" id="aC"/><path fill="#7ab648" d="M179-190L93 31C79 59 56 82 12 73V49c39 6 53-20 64-50L1-190h34L92-34l54-156h33" id="aD"/><g id="g"><use transform="matrix(0.06172839506172839,0,0,0.06172839506172839,0,0)" xlink:href="#av"/><use transform="matrix(0.06172839506172839,0,0,0.06172839506172839,11.11111111111111,0)" xlink:href="#aB"/><use transform="matrix(0.06172839506172839,0,0,0.06172839506172839,23.45679012345679,0)" xlink:href="#aC"/><use transform="matrix(0.06172839506172839,0,0,0.06172839506172839,41.91358024691358,0)" xlink:href="#aC"/><use transform="matrix(0.06172839506172839,0,0,0.06172839506172839,60.37037037037037,0)" xlink:href="#ax"/><use transform="matrix(0.06172839506172839,0,0,0.06172839506172839,72.71604938271605,0)" xlink:href="#ay"/><use transform="matrix(0.06172839506172839,0,0,0.06172839506172839,80.06172839506173,0)" xlink:href="#aD"/></g><path fill="#7ab648" d="M101-234c-31-9-42 10-38 44h38v23H63V0H32v-167H5v-23h27c-7-52 17-82 69-68v24" id="aE"/><path fill="#7ab648" d="M24-231v-30h32v30H24zM24 0v-190h32V0H24" id="aF"/><g id="h"><use transform="matrix(0.06172839506172839,0,0,0.06172839506172839,0,0)" xlink:href="#aE"/><use transform="matrix(0.06172839506172839,0,0,0.06172839506172839,6.172839506172839,0)" xlink:href="#aF"/><use transform="matrix(0.06172839506172839,0,0,0.06172839506172839,11.049382716049383,0)" xlink:href="#aw"/><use transform="matrix(0.06172839506172839,0,0,0.06172839506172839,15.925925925925926,0)" xlink:href="#ar"/></g><g id="i"><use transform="matrix(0.06172839506172839,0,0,0.06172839506172839,0,0)" xlink:href="#ax"/><use transform="matrix(0.06172839506172839,0,0,0.06172839506172839,12.345679012345679,0)" xlink:href="#av"/></g><g id="j"><use transform="matrix(0.06172839506172839,0,0,0.06172839506172839,0,0)" xlink:href="#av"/><use transform="matrix(0.06172839506172839,0,0,0.06172839506172839,11.11111111111111,0)" xlink:href="#as"/><use transform="matrix(0.06172839506172839,0,0,0.06172839506172839,17.28395061728395,0)" xlink:href="#ay"/><use transform="matrix(0.06172839506172839,0,0,0.06172839506172839,24.629629629629626,0)" xlink:href="#ar"/><use transform="matrix(0.06172839506172839,0,0,0.06172839506172839,36.9753086419753,0)" xlink:href="#ax"/><use transform="matrix(0.06172839506172839,0,0,0.06172839506172839,49.32098765432098,0)" xlink:href="#aC"/></g><path fill="#333" d="M233-177c-1 41-23 64-60 70L243 0h-38l-65-103H63V0H30v-248c88 3 205-21 203 71zM63-129c60-2 137 13 137-47 0-61-80-42-137-45v92" id="aG"/><path fill="#333" d="M100-194c63 0 86 42 84 106H49c0 40 14 67 53 68 26 1 43-12 49-29l28 8c-11 28-37 45-77 45C44 4 14-33 15-96c1-61 26-98 85-98zm52 81c6-60-76-77-97-28-3 7-6 17-6 28h103" id="aH"/><path fill="#333" d="M135-143c-3-34-86-38-87 0 15 53 115 12 119 90S17 21 10-45l28-5c4 36 97 45 98 0-10-56-113-15-118-90-4-57 82-63 122-42 12 7 21 19 24 35" id="aI"/><path fill="#333" d="M59-47c-2 24 18 29 38 22v24C64 9 27 4 27-40v-127H5v-23h24l9-43h21v43h35v23H59v120" id="aJ"/><g id="k"><use transform="matrix(0.06172839506172839,0,0,0.06172839506172839,0,0)" xlink:href="#aG"/><use transform="matrix(0.06172839506172839,0,0,0.06172839506172839,15.987654320987653,0)" xlink:href="#aH"/><use transform="matrix(0.06172839506172839,0,0,0.06172839506172839,28.333333333333332,0)" xlink:href="#aI"/><use transform="matrix(0.06172839506172839,0,0,0.06172839506172839,39.44444444444444,0)" xlink:href="#aJ"/></g><path fill="#333" d="M212-179c-10-28-35-45-73-45-59 0-87 40-87 99 0 60 29 101 89 101 43 0 62-24 78-52l27 14C228-24 195 4 139 4 59 4 22-46 18-125c-6-104 99-153 187-111 19 9 31 26 39 46" id="aK"/><path fill="#333" d="M100-194c62-1 85 37 85 99 1 63-27 99-86 99S16-35 15-95c0-66 28-99 85-99zM99-20c44 1 53-31 53-75 0-43-8-75-51-75s-53 32-53 75 10 74 51 75" id="aL"/><path fill="#333" d="M117-194c89-4 53 116 60 194h-32v-121c0-31-8-49-39-48C34-167 62-67 57 0H25l-1-190h30c1 10-1 24 2 32 11-22 29-35 61-36" id="aM"/><path fill="#333" d="M114-163C36-179 61-72 57 0H25l-1-190h30c1 12-1 29 2 39 6-27 23-49 58-41v29" id="aN"/><path fill="#333" d="M24 0v-261h32V0H24" id="aO"/><g id="l"><use transform="matrix(0.06172839506172839,0,0,0.06172839506172839,0,0)" xlink:href="#aK"/><use transform="matrix(0.06172839506172839,0,0,0.06172839506172839,15.987654320987653,0)" xlink:href="#aL"/><use transform="matrix(0.06172839506172839,0,0,0.06172839506172839,28.333333333333332,0)" xlink:href="#aM"/><use transform="matrix(0.06172839506172839,0,0,0.06172839506172839,40.67901234567901,0)" xlink:href="#aJ"/><use transform="matrix(0.06172839506172839,0,0,0.06172839506172839,46.851851851851855,0)" xlink:href="#aN"/><use transform="matrix(0.06172839506172839,0,0,0.06172839506172839,54.19753086419753,0)" xlink:href="#aL"/><use transform="matrix(0.06172839506172839,0,0,0.06172839506172839,66.54320987654322,0)" xlink:href="#aO"/><use transform="matrix(0.06172839506172839,0,0,0.06172839506172839,71.41975308641976,0)" xlink:href="#aO"/><use transform="matrix(0.06172839506172839,0,0,0.06172839506172839,76.2962962962963,0)" xlink:href="#aH"/><use transform="matrix(0.06172839506172839,0,0,0.06172839506172839,88.64197530864199,0)" xlink:href="#aN"/></g><path fill="#333" d="M118-107v75H92v-75H18v-26h74v-75h26v75h74v26h-74" id="aP"/><use transform="matrix(0.06172839506172839,0,0,0.06172839506172839,0,0)" xlink:href="#aP" id="m"/><path fill="#333" d="M177-190C167-65 218 103 67 71c-23-6-38-20-44-43l32-5c15 47 100 32 89-28v-30C133-14 115 1 83 1 29 1 15-40 15-95c0-56 16-97 71-98 29-1 48 16 59 35 1-10 0-23 2-32h30zM94-22c36 0 50-32 50-73 0-42-14-75-50-75-39 0-46 34-46 75s6 73 46 73" id="aQ"/><path fill="#333" d="M127-220V0H93v-220H8v-28h204v28h-85" id="aR"/><path fill="#333" d="M115-194c55 1 70 41 70 98S169 2 115 4C84 4 66-9 55-30l1 105H24l-1-265h31l2 30c10-21 28-34 59-34zm-8 174c40 0 45-34 45-75s-6-73-45-74c-42 0-51 32-51 76 0 43 10 73 51 73" id="aS"/><path fill="#333" d="M30-248c87 1 191-15 191 75 0 78-77 80-158 76V0H30v-248zm33 125c57 0 124 11 124-50 0-59-68-47-124-48v98" id="aT"/><path fill="#333" d="M85-194c31 0 48 13 60 33l-1-100h32l1 261h-30c-2-10 0-23-3-31C134-8 116 4 85 4 32 4 16-35 15-94c0-66 23-100 70-100zm9 24c-40 0-46 34-46 75 0 40 6 74 45 74 42 0 51-32 51-76 0-42-9-74-50-73" id="aU"/><path fill="#333" d="M84 4C-5 8 30-112 23-190h32v120c0 31 7 50 39 49 72-2 45-101 50-169h31l1 190h-30c-1-10 1-25-2-33-11 22-28 36-60 37" id="aV"/><path fill="#333" d="M96-169c-40 0-48 33-48 73s9 75 48 75c24 0 41-14 43-38l32 2c-6 37-31 61-74 61-59 0-76-41-82-99-10-93 101-131 147-64 4 7 5 14 7 22l-32 3c-4-21-16-35-41-35" id="aW"/><path fill="#333" d="M87 75C49 33 22-17 22-94c0-76 28-126 65-167h31c-38 41-64 92-64 168S80 34 118 75H87" id="aX"/><path fill="#333" d="M141-36C126-15 110 5 73 4 37 3 15-17 15-53c-1-64 63-63 125-63 3-35-9-54-41-54-24 1-41 7-42 31l-33-3c5-37 33-52 76-52 45 0 72 20 72 64v82c-1 20 7 32 28 27v20c-31 9-61-2-59-35zM48-53c0 20 12 33 32 33 41-3 63-29 60-74-43 2-92-5-92 41" id="aY"/><path fill="#333" d="M179-190L93 31C79 59 56 82 12 73V49c39 6 53-20 64-50L1-190h34L92-34l54-156h33" id="aZ"/><path fill="#333" d="M68-38c1 34 0 65-14 84H32c9-13 17-26 17-46H33v-38h35" id="ba"/><g id="n"><use transform="matrix(0.06172839506172839,0,0,0.06172839506172839,0,0)" xlink:href="#aQ"/><use transform="matrix(0.06172839506172839,0,0,0.06172839506172839,12.345679012345679,0)" xlink:href="#aH"/><use transform="matrix(0.06172839506172839,0,0,0.06172839506172839,24.691358024691358,0)" xlink:href="#aJ"/><use transform="matrix(0.06172839506172839,0,0,0.06172839506172839,30.864197530864196,0)" xlink:href="#aR"/><use transform="matrix(0.06172839506172839,0,0,0.06172839506172839,41.913580246913575,0)" xlink:href="#aL"/><use transform="matrix(0.06172839506172839,0,0,0.06172839506172839,54.25925925925925,0)" xlink:href="#aS"/><use transform="matrix(0.06172839506172839,0,0,0.06172839506172839,66.60493827160494,0)" xlink:href="#aT"/><use transform="matrix(0.06172839506172839,0,0,0.06172839506172839,81.41975308641975,0)" xlink:href="#aN"/><use transform="matrix(0.06172839506172839,0,0,0.06172839506172839,88.76543209876543,0)" xlink:href="#aL"/><use transform="matrix(0.06172839506172839,0,0,0.06172839506172839,101.11111111111111,0)" xlink:href="#aU"/><use transform="matrix(0.06172839506172839,0,0,0.06172839506172839,113.4567901234568,0)" xlink:href="#aV"/><use transform="matrix(0.06172839506172839,0,0,0.06172839506172839,125.80246913580248,0)" xlink:href="#aW"/><use transform="matrix(0.06172839506172839,0,0,0.06172839506172839,136.9135802469136,0)" xlink:href="#aJ"/><use transform="matrix(0.06172839506172839,0,0,0.06172839506172839,143.08641975308643,0)" xlink:href="#aI"/><use transform="matrix(0.06172839506172839,0,0,0.06172839506172839,154.19753086419755,0)" xlink:href="#aX"/><use transform="matrix(0.06172839506172839,0,0,0.06172839506172839,161.54320987654322,0)" xlink:href="#aW"/><use transform="matrix(0.06172839506172839,0,0,0.06172839506172839,172.65432098765433,0)" xlink:href="#aY"/><use transform="matrix(0.06172839506172839,0,0,0.06172839506172839,185,0)" xlink:href="#aJ"/><use transform="matrix(0.06172839506172839,0,0,0.06172839506172839,191.17283950617283,0)" xlink:href="#aH"/><use transform="matrix(0.06172839506172839,0,0,0.06172839506172839,203.5185185185185,0)" xlink:href="#aQ"/><use transform="matrix(0.06172839506172839,0,0,0.06172839506172839,215.86419753086417,0)" xlink:href="#aL"/><use transform="matrix(0.06172839506172839,0,0,0.06172839506172839,228.20987654320984,0)" xlink:href="#aN"/><use transform="matrix(0.06172839506172839,0,0,0.06172839506172839,235.55555555555551,0)" xlink:href="#aZ"/><use transform="matrix(0.06172839506172839,0,0,0.06172839506172839,244.99999999999997,0)" xlink:href="#ba"/></g><path fill="#333" d="M24-231v-30h32v30H24zM24 0v-190h32V0H24" id="bb"/><path fill="#333" d="M210-169c-67 3-38 105-44 169h-31v-121c0-29-5-50-35-48C34-165 62-65 56 0H25l-1-190h30c1 10-1 24 2 32 10-44 99-50 107 0 11-21 27-35 58-36 85-2 47 119 55 194h-31v-121c0-29-5-49-35-48" id="bc"/><path fill="#333" d="M33-261c38 41 65 92 65 168S71 34 33 75H2C39 34 66-17 66-93S39-220 2-261h31" id="bd"/><g id="o"><use transform="matrix(0.06172839506172839,0,0,0.06172839506172839,0,0)" xlink:href="#aO"/><use transform="matrix(0.06172839506172839,0,0,0.06172839506172839,4.876543209876543,0)" xlink:href="#bb"/><use transform="matrix(0.06172839506172839,0,0,0.06172839506172839,9.753086419753085,0)" xlink:href="#bc"/><use transform="matrix(0.06172839506172839,0,0,0.06172839506172839,28.209876543209873,0)" xlink:href="#bb"/><use transform="matrix(0.06172839506172839,0,0,0.06172839506172839,33.08641975308642,0)" xlink:href="#aJ"/><use transform="matrix(0.06172839506172839,0,0,0.06172839506172839,39.25925925925926,0)" xlink:href="#bd"/></g><path fill="#333" d="M185-189c-5-48-123-54-124 2 14 75 158 14 163 119 3 78-121 87-175 55-17-10-28-26-33-46l33-7c5 56 141 63 141-1 0-78-155-14-162-118-5-82 145-84 179-34 5 7 8 16 11 25" id="be"/><path fill="#333" d="M108 0H70L1-190h34L89-25l56-165h34" id="bf"/><g id="p"><use transform="matrix(0.06172839506172839,0,0,0.06172839506172839,0,0)" xlink:href="#aR"/><use transform="matrix(0.06172839506172839,0,0,0.06172839506172839,11.049382716049381,0)" xlink:href="#aL"/><use transform="matrix(0.06172839506172839,0,0,0.06172839506172839,23.39506172839506,0)" xlink:href="#aS"/><use transform="matrix(0.06172839506172839,0,0,0.06172839506172839,35.74074074074074,0)" xlink:href="#aT"/><use transform="matrix(0.06172839506172839,0,0,0.06172839506172839,50.55555555555556,0)" xlink:href="#aN"/><use transform="matrix(0.06172839506172839,0,0,0.06172839506172839,57.901234567901234,0)" xlink:href="#aL"/><use transform="matrix(0.06172839506172839,0,0,0.06172839506172839,70.24691358024691,0)" xlink:href="#aU"/><use transform="matrix(0.06172839506172839,0,0,0.06172839506172839,82.5925925925926,0)" xlink:href="#aV"/><use transform="matrix(0.06172839506172839,0,0,0.06172839506172839,94.93827160493828,0)" xlink:href="#aW"/><use transform="matrix(0.06172839506172839,0,0,0.06172839506172839,106.0493827160494,0)" xlink:href="#aJ"/><use transform="matrix(0.06172839506172839,0,0,0.06172839506172839,112.22222222222223,0)" xlink:href="#aI"/><use transform="matrix(0.06172839506172839,0,0,0.06172839506172839,123.33333333333334,0)" xlink:href="#be"/><use transform="matrix(0.06172839506172839,0,0,0.06172839506172839,138.14814814814815,0)" xlink:href="#aH"/><use transform="matrix(0.06172839506172839,0,0,0.06172839506172839,150.49382716049382,0)" xlink:href="#aN"/><use transform="matrix(0.06172839506172839,0,0,0.06172839506172839,157.8395061728395,0)" xlink:href="#bf"/><use transform="matrix(0.06172839506172839,0,0,0.06172839506172839,168.9506172839506,0)" xlink:href="#bb"/><use transform="matrix(0.06172839506172839,0,0,0.06172839506172839,173.82716049382714,0)" xlink:href="#aW"/><use transform="matrix(0.06172839506172839,0,0,0.06172839506172839,184.93827160493825,0)" xlink:href="#aH"/></g><path fill="#7ab648" d="M212-179c-10-28-35-45-73-45-59 0-87 40-87 99 0 60 29 101 89 101 43 0 62-24 78-52l27 14C228-24 195 4 139 4 59 4 22-46 18-125c-6-104 99-153 187-111 19 9 31 26 39 46" id="bg"/><path fill="#7ab648" d="M177-190C167-65 218 103 67 71c-23-6-38-20-44-43l32-5c15 47 100 32 89-28v-30C133-14 115 1 83 1 29 1 15-40 15-95c0-56 16-97 71-98 29-1 48 16 59 35 1-10 0-23 2-32h30zM94-22c36 0 50-32 50-73 0-42-14-75-50-75-39 0-46 34-46 75s6 73 46 73" id="bh"/><path fill="#7ab648" d="M185-189c-5-48-123-54-124 2 14 75 158 14 163 119 3 78-121 87-175 55-17-10-28-26-33-46l33-7c5 56 141 63 141-1 0-78-155-14-162-118-5-82 145-84 179-34 5 7 8 16 11 25" id="bi"/><path fill="#7ab648" d="M108 0H70L1-190h34L89-25l56-165h34" id="bj"/><g id="q"><use transform="matrix(0.06172839506172839,0,0,0.06172839506172839,0,0)" xlink:href="#bg"/><use transform="matrix(0.06172839506172839,0,0,0.06172839506172839,15.987654320987653,0)" xlink:href="#ax"/><use transform="matrix(0.06172839506172839,0,0,0.06172839506172839,28.333333333333332,0)" xlink:href="#at"/><use transform="matrix(0.06172839506172839,0,0,0.06172839506172839,39.44444444444444,0)" xlink:href="#au"/><use transform="matrix(0.06172839506172839,0,0,0.06172839506172839,51.79012345679012,0)" xlink:href="#aF"/><use transform="matrix(0.06172839506172839,0,0,0.06172839506172839,56.666666666666664,0)" xlink:href="#az"/><use transform="matrix(0.06172839506172839,0,0,0.06172839506172839,69.01234567901234,0)" xlink:href="#bh"/><use transform="matrix(0.06172839506172839,0,0,0.06172839506172839,81.35802469135803,0)" xlink:href="#bi"/><use transform="matrix(0.06172839506172839,0,0,0.06172839506172839,96.17283950617283,0)" xlink:href="#ar"/><use transform="matrix(0.06172839506172839,0,0,0.06172839506172839,108.51851851851852,0)" xlink:href="#ay"/><use transform="matrix(0.06172839506172839,0,0,0.06172839506172839,115.8641975308642,0)" xlink:href="#bj"/><use transform="matrix(0.06172839506172839,0,0,0.06172839506172839,126.97530864197533,0)" xlink:href="#aF"/><use transform="matrix(0.06172839506172839,0,0,0.06172839506172839,131.85185185185185,0)" xlink:href="#at"/><use transform="matrix(0.06172839506172839,0,0,0.06172839506172839,142.96296296296296,0)" xlink:href="#ar"/></g><path fill="#7ab648" d="M118-107v75H92v-75H18v-26h74v-75h26v75h74v26h-74" id="bk"/><use transform="matrix(0.06172839506172839,0,0,0.06172839506172839,0,0)" xlink:href="#bk" id="r"/><path fill="#7ab648" d="M30-248c87 1 191-15 191 75 0 78-77 80-158 76V0H30v-248zm33 125c57 0 124 11 124-50 0-59-68-47-124-48v98" id="bl"/><path fill="#7ab648" d="M100-194c62-1 85 37 85 99 1 63-27 99-86 99S16-35 15-95c0-66 28-99 85-99zM99-20c44 1 53-31 53-75 0-43-8-75-51-75s-53 32-53 75 10 74 51 75" id="bm"/><path fill="#7ab648" d="M85-194c31 0 48 13 60 33l-1-100h32l1 261h-30c-2-10 0-23-3-31C134-8 116 4 85 4 32 4 16-35 15-94c0-66 23-100 70-100zm9 24c-40 0-46 34-46 75 0 40 6 74 45 74 42 0 51-32 51-76 0-42-9-74-50-73" id="bn"/><path fill="#7ab648" d="M68-38c1 34 0 65-14 84H32c9-13 17-26 17-46H33v-38h35" id="bo"/><g id="s"><use transform="matrix(0.06172839506172839,0,0,0.06172839506172839,0,0)" xlink:href="#bh"/><use transform="matrix(0.06172839506172839,0,0,0.06172839506172839,12.345679012345679,0)" xlink:href="#ar"/><use transform="matrix(0.06172839506172839,0,0,0.06172839506172839,24.691358024691358,0)" xlink:href="#as"/><use transform="matrix(0.06172839506172839,0,0,0.06172839506172839,30.864197530864196,0)" xlink:href="#bl"/><use transform="matrix(0.06172839506172839,0,0,0.06172839506172839,45.67901234567901,0)" xlink:href="#ay"/><use transform="matrix(0.06172839506172839,0,0,0.06172839506172839,53.02469135802469,0)" xlink:href="#bm"/><use transform="matrix(0.06172839506172839,0,0,0.06172839506172839,65.37037037037037,0)" xlink:href="#bn"/><use transform="matrix(0.06172839506172839,0,0,0.06172839506172839,77.71604938271605,0)" xlink:href="#aB"/><use transform="matrix(0.06172839506172839,0,0,0.06172839506172839,90.06172839506173,0)" xlink:href="#at"/><use transform="matrix(0.06172839506172839,0,0,0.06172839506172839,101.17283950617285,0)" xlink:href="#as"/><use transform="matrix(0.06172839506172839,0,0,0.06172839506172839,107.34567901234568,0)" xlink:href="#av"/><use transform="matrix(0.06172839506172839,0,0,0.06172839506172839,118.4567901234568,0)" xlink:href="#an"/><use transform="matrix(0.06172839506172839,0,0,0.06172839506172839,125.80246913580248,0)" xlink:href="#aA"/><use transform="matrix(0.06172839506172839,0,0,0.06172839506172839,136.9135802469136,0)" xlink:href="#ar"/><use transform="matrix(0.06172839506172839,0,0,0.06172839506172839,149.25925925925927,0)" xlink:href="#aD"/><use transform="matrix(0.06172839506172839,0,0,0.06172839506172839,158.70370370370372,0)" xlink:href="#bo"/></g><g id="t"><use transform="matrix(0.06172839506172839,0,0,0.06172839506172839,0,0)" xlink:href="#aw"/><use transform="matrix(0.06172839506172839,0,0,0.06172839506172839,4.876543209876543,0)" xlink:href="#aF"/><use transform="matrix(0.06172839506172839,0,0,0.06172839506172839,9.753086419753085,0)" xlink:href="#aC"/><use transform="matrix(0.06172839506172839,0,0,0.06172839506172839,28.209876543209873,0)" xlink:href="#aF"/><use transform="matrix(0.06172839506172839,0,0,0.06172839506172839,33.08641975308642,0)" xlink:href="#as"/><use transform="matrix(0.06172839506172839,0,0,0.06172839506172839,39.25925925925926,0)" xlink:href="#ap"/></g><path fill="#7ab648" d="M115-194c53 0 69 39 70 98 0 66-23 100-70 100C84 3 66-7 56-30L54 0H23l1-261h32v101c10-23 28-34 59-34zm-8 174c40 0 45-34 45-75 0-40-5-75-45-74-42 0-51 32-51 76 0 43 10 73 51 73" id="bp"/><g id="u"><use transform="matrix(0.06172839506172839,0,0,0.06172839506172839,0,0)" xlink:href="#bp"/><use transform="matrix(0.06172839506172839,0,0,0.06172839506172839,12.345679012345679,0)" xlink:href="#aB"/><use transform="matrix(0.06172839506172839,0,0,0.06172839506172839,24.691358024691358,0)" xlink:href="#aF"/><use transform="matrix(0.06172839506172839,0,0,0.06172839506172839,29.5679012345679,0)" xlink:href="#aw"/><use transform="matrix(0.06172839506172839,0,0,0.06172839506172839,34.44444444444444,0)" xlink:href="#bn"/><use transform="matrix(0.06172839506172839,0,0,0.06172839506172839,46.79012345679012,0)" xlink:href="#bg"/><use transform="matrix(0.06172839506172839,0,0,0.06172839506172839,62.77777777777777,0)" xlink:href="#ax"/><use transform="matrix(0.06172839506172839,0,0,0.06172839506172839,75.12345679012346,0)" xlink:href="#at"/><use transform="matrix(0.06172839506172839,0,0,0.06172839506172839,86.23456790123457,0)" xlink:href="#au"/><use transform="matrix(0.06172839506172839,0,0,0.06172839506172839,98.58024691358025,0)" xlink:href="#ar"/><use transform="matrix(0.06172839506172839,0,0,0.06172839506172839,110.92592592592594,0)" xlink:href="#an"/><use transform="matrix(0.06172839506172839,0,0,0.06172839506172839,118.27160493827162,0)" xlink:href="#ap"/></g><g id="v"><use transform="matrix(0.06172839506172839,0,0,0.06172839506172839,0,0)" xlink:href="#bg"/><use transform="matrix(0.06172839506172839,0,0,0.06172839506172839,15.987654320987653,0)" xlink:href="#ax"/><use transform="matrix(0.06172839506172839,0,0,0.06172839506172839,28.333333333333332,0)" xlink:href="#at"/><use transform="matrix(0.06172839506172839,0,0,0.06172839506172839,39.44444444444444,0)" xlink:href="#au"/><use transform="matrix(0.06172839506172839,0,0,0.06172839506172839,51.79012345679012,0)" xlink:href="#ar"/></g><path fill="#7ab648" d="M190 0L58-211 59 0H30v-248h39L202-35l-2-213h31V0h-41" id="bq"/><g id="w"><use transform="matrix(0.06172839506172839,0,0,0.06172839506172839,0,0)" xlink:href="#bq"/><use transform="matrix(0.06172839506172839,0,0,0.06172839506172839,15.987654320987653,0)" xlink:href="#bm"/><use transform="matrix(0.06172839506172839,0,0,0.06172839506172839,28.333333333333332,0)" xlink:href="#bn"/><use transform="matrix(0.06172839506172839,0,0,0.06172839506172839,40.67901234567901,0)" xlink:href="#ar"/></g><path fill="#7ab648" d="M30-248c118-7 216 8 213 122C240-48 200 0 122 0H30v-248zM63-27c89 8 146-16 146-99s-60-101-146-95v194" id="br"/><g id="x"><use transform="matrix(0.06172839506172839,0,0,0.06172839506172839,0,0)" xlink:href="#br"/><use transform="matrix(0.06172839506172839,0,0,0.06172839506172839,15.987654320987653,0)" xlink:href="#aF"/><use transform="matrix(0.06172839506172839,0,0,0.06172839506172839,20.864197530864196,0)" xlink:href="#av"/><use transform="matrix(0.06172839506172839,0,0,0.06172839506172839,31.975308641975307,0)" xlink:href="#as"/><use transform="matrix(0.06172839506172839,0,0,0.06172839506172839,38.148148148148145,0)" xlink:href="#ay"/><use transform="matrix(0.06172839506172839,0,0,0.06172839506172839,45.49382716049382,0)" xlink:href="#aF"/><use transform="matrix(0.06172839506172839,0,0,0.06172839506172839,50.37037037037037,0)" xlink:href="#bp"/><use transform="matrix(0.06172839506172839,0,0,0.06172839506172839,62.716049382716044,0)" xlink:href="#aB"/><use transform="matrix(0.06172839506172839,0,0,0.06172839506172839,75.06172839506172,0)" xlink:href="#as"/><use transform="matrix(0.06172839506172839,0,0,0.06172839506172839,81.23456790123456,0)" xlink:href="#ar"/><use transform="matrix(0.06172839506172839,0,0,0.06172839506172839,93.58024691358024,0)" xlink:href="#bn"/><use transform="matrix(0.06172839506172839,0,0,0.06172839506172839,105.92592592592592,0)" xlink:href="#aq"/><use transform="matrix(0.06172839506172839,0,0,0.06172839506172839,119.44444444444444,0)" xlink:href="#bi"/><use transform="matrix(0.06172839506172839,0,0,0.06172839506172839,134.25925925925927,0)" xlink:href="#br"/><use transform="matrix(0.06172839506172839,0,0,0.06172839506172839,150.2469135802469,0)" xlink:href="#ay"/><use transform="matrix(0.06172839506172839,0,0,0.06172839506172839,157.59259259259258,0)" xlink:href="#aF"/><use transform="matrix(0.06172839506172839,0,0,0.06172839506172839,162.4691358024691,0)" xlink:href="#bj"/><use transform="matrix(0.06172839506172839,0,0,0.06172839506172839,173.58024691358023,0)" xlink:href="#ar"/><use transform="matrix(0.06172839506172839,0,0,0.06172839506172839,185.9259259259259,0)" xlink:href="#ay"/></g><path fill="#7ab648" d="M205 0l-28-72H64L36 0H1l101-248h38L239 0h-34zm-38-99l-47-123c-12 45-31 82-46 123h93" id="bs"/><g id="y"><use transform="matrix(0.06172839506172839,0,0,0.06172839506172839,0,0)" xlink:href="#bh"/><use transform="matrix(0.06172839506172839,0,0,0.06172839506172839,12.345679012345679,0)" xlink:href="#ar"/><use transform="matrix(0.06172839506172839,0,0,0.06172839506172839,24.691358024691358,0)" xlink:href="#as"/><use transform="matrix(0.06172839506172839,0,0,0.06172839506172839,30.864197530864196,0)" xlink:href="#aq"/><use transform="matrix(0.06172839506172839,0,0,0.06172839506172839,44.382716049382715,0)" xlink:href="#aF"/><use transform="matrix(0.06172839506172839,0,0,0.06172839506172839,49.25925925925926,0)" xlink:href="#aw"/><use transform="matrix(0.06172839506172839,0,0,0.06172839506172839,54.135802469135804,0)" xlink:href="#ar"/><use transform="matrix(0.06172839506172839,0,0,0.06172839506172839,66.48148148148148,0)" xlink:href="#bg"/><use transform="matrix(0.06172839506172839,0,0,0.06172839506172839,82.46913580246914,0)" xlink:href="#bm"/><use transform="matrix(0.06172839506172839,0,0,0.06172839506172839,94.81481481481482,0)" xlink:href="#az"/><use transform="matrix(0.06172839506172839,0,0,0.06172839506172839,107.16049382716051,0)" xlink:href="#as"/><use transform="matrix(0.06172839506172839,0,0,0.06172839506172839,113.33333333333334,0)" xlink:href="#ar"/><use transform="matrix(0.06172839506172839,0,0,0.06172839506172839,125.67901234567903,0)" xlink:href="#az"/><use transform="matrix(0.06172839506172839,0,0,0.06172839506172839,138.0246913580247,0)" xlink:href="#as"/><use transform="matrix(0.06172839506172839,0,0,0.06172839506172839,144.19753086419755,0)" xlink:href="#bs"/><use transform="matrix(0.06172839506172839,0,0,0.06172839506172839,159.01234567901236,0)" xlink:href="#av"/><use transform="matrix(0.06172839506172839,0,0,0.06172839506172839,170.12345679012347,0)" xlink:href="#bi"/><use transform="matrix(0.06172839506172839,0,0,0.06172839506172839,184.93827160493828,0)" xlink:href="#as"/><use transform="matrix(0.06172839506172839,0,0,0.06172839506172839,191.11111111111111,0)" xlink:href="#ay"/><use transform="matrix(0.06172839506172839,0,0,0.06172839506172839,198.45679012345678,0)" xlink:href="#ar"/><use transform="matrix(0.06172839506172839,0,0,0.06172839506172839,210.80246913580245,0)" xlink:href="#ax"/><use transform="matrix(0.06172839506172839,0,0,0.06172839506172839,223.14814814814812,0)" xlink:href="#aC"/><use transform="matrix(0.06172839506172839,0,0,0.06172839506172839,241.6049382716049,0)" xlink:href="#an"/><use transform="matrix(0.06172839506172839,0,0,0.06172839506172839,248.95061728395058,0)" xlink:href="#aE"/><use transform="matrix(0.06172839506172839,0,0,0.06172839506172839,255.12345679012338,0)" xlink:href="#aF"/><use transform="matrix(0.06172839506172839,0,0,0.06172839506172839,259.99999999999994,0)" xlink:href="#aw"/><use transform="matrix(0.06172839506172839,0,0,0.06172839506172839,264.8765432098765,0)" xlink:href="#ar"/><use transform="matrix(0.06172839506172839,0,0,0.06172839506172839,277.2222222222222,0)" xlink:href="#bq"/><use transform="matrix(0.06172839506172839,0,0,0.06172839506172839,293.2098765432098,0)" xlink:href="#ax"/><use transform="matrix(0.06172839506172839,0,0,0.06172839506172839,305.5555555555555,0)" xlink:href="#aC"/><use transform="matrix(0.06172839506172839,0,0,0.06172839506172839,324.0123456790123,0)" xlink:href="#ar"/><use transform="matrix(0.06172839506172839,0,0,0.06172839506172839,336.35802469135797,0)" xlink:href="#ap"/></g><path fill="#7ab648" d="M126-127c33 6 58 20 58 59 0 88-139 92-164 29-3-8-5-16-6-25l32-3c6 27 21 44 54 44 32 0 52-15 52-46 0-38-36-46-79-43v-28c39 1 72-4 72-42 0-27-17-43-46-43-28 0-47 15-49 41l-32-3c6-42 35-63 81-64 48-1 79 21 79 65 0 36-21 52-52 59" id="bt"/><g id="z"><use transform="matrix(0.06172839506172839,0,0,0.06172839506172839,0,0)" xlink:href="#an"/><use transform="matrix(0.06172839506172839,0,0,0.06172839506172839,7.345679012345679,0)" xlink:href="#bt"/><use transform="matrix(0.06172839506172839,0,0,0.06172839506172839,19.691358024691358,0)" xlink:href="#ap"/></g><path fill="#7ab648" d="M160-131c35 5 61 23 61 61C221 17 115-2 30 0v-248c76 3 177-17 177 60 0 33-19 50-47 57zm-97-11c50-1 110 9 110-42 0-47-63-36-110-37v79zm0 115c55-2 124 14 124-45 0-56-70-42-124-44v89" id="bu"/><g id="A"><use transform="matrix(0.06172839506172839,0,0,0.06172839506172839,0,0)" xlink:href="#bu"/><use transform="matrix(0.06172839506172839,0,0,0.06172839506172839,14.814814814814813,0)" xlink:href="#aB"/><use transform="matrix(0.06172839506172839,0,0,0.06172839506172839,27.160493827160494,0)" xlink:href="#aF"/><use transform="matrix(0.06172839506172839,0,0,0.06172839506172839,32.03703703703704,0)" xlink:href="#aw"/><use transform="matrix(0.06172839506172839,0,0,0.06172839506172839,36.91358024691358,0)" xlink:href="#bn"/><use transform="matrix(0.06172839506172839,0,0,0.06172839506172839,49.25925925925926,0)" xlink:href="#av"/></g><g id="B"><use transform="matrix(0.06172839506172839,0,0,0.06172839506172839,0,0)" xlink:href="#at"/><use transform="matrix(0.06172839506172839,0,0,0.06172839506172839,11.11111111111111,0)" xlink:href="#ax"/><use transform="matrix(0.06172839506172839,0,0,0.06172839506172839,23.45679012345679,0)" xlink:href="#at"/><use transform="matrix(0.06172839506172839,0,0,0.06172839506172839,34.5679012345679,0)" xlink:href="#au"/><use transform="matrix(0.06172839506172839,0,0,0.06172839506172839,46.913580246913575,0)" xlink:href="#ar"/></g><g id="C"><use transform="matrix(0.06172839506172839,0,0,0.06172839506172839,0,0)" xlink:href="#aE"/><use transform="matrix(0.06172839506172839,0,0,0.06172839506172839,6.172839506172839,0)" xlink:href="#ay"/><use transform="matrix(0.06172839506172839,0,0,0.06172839506172839,13.518518518518519,0)" xlink:href="#bm"/><use transform="matrix(0.06172839506172839,0,0,0.06172839506172839,25.864197530864196,0)" xlink:href="#aC"/></g><g id="D"><use transform="matrix(0.06172839506172839,0,0,0.06172839506172839,0,0)" xlink:href="#aq"/><use transform="matrix(0.06172839506172839,0,0,0.06172839506172839,13.518518518518517,0)" xlink:href="#ar"/><use transform="matrix(0.06172839506172839,0,0,0.06172839506172839,25.864197530864196,0)" xlink:href="#ar"/><use transform="matrix(0.06172839506172839,0,0,0.06172839506172839,38.20987654320987,0)" xlink:href="#bn"/><use transform="matrix(0.06172839506172839,0,0,0.06172839506172839,50.55555555555555,0)" xlink:href="#bl"/><use transform="matrix(0.06172839506172839,0,0,0.06172839506172839,65.37037037037037,0)" xlink:href="#ay"/><use transform="matrix(0.06172839506172839,0,0,0.06172839506172839,72.71604938271605,0)" xlink:href="#bm"/><use transform="matrix(0.06172839506172839,0,0,0.06172839506172839,85.06172839506173,0)" xlink:href="#at"/><use transform="matrix(0.06172839506172839,0,0,0.06172839506172839,96.17283950617285,0)" xlink:href="#ar"/><use transform="matrix(0.06172839506172839,0,0,0.06172839506172839,108.51851851851853,0)" xlink:href="#av"/><use transform="matrix(0.06172839506172839,0,0,0.06172839506172839,119.62962962962965,0)" xlink:href="#av"/><use transform="matrix(0.06172839506172839,0,0,0.06172839506172839,130.74074074074076,0)" xlink:href="#bi"/><use transform="matrix(0.06172839506172839,0,0,0.06172839506172839,145.55555555555557,0)" xlink:href="#at"/><use transform="matrix(0.06172839506172839,0,0,0.06172839506172839,156.66666666666669,0)" xlink:href="#au"/><use transform="matrix(0.06172839506172839,0,0,0.06172839506172839,169.01234567901236,0)" xlink:href="#ar"/><use transform="matrix(0.06172839506172839,0,0,0.06172839506172839,181.35802469135803,0)" xlink:href="#bn"/><use transform="matrix(0.06172839506172839,0,0,0.06172839506172839,193.7037037037037,0)" xlink:href="#aB"/><use transform="matrix(0.06172839506172839,0,0,0.06172839506172839,206.04938271604937,0)" xlink:href="#aw"/><use transform="matrix(0.06172839506172839,0,0,0.06172839506172839,210.9259259259259,0)" xlink:href="#ar"/><use transform="matrix(0.06172839506172839,0,0,0.06172839506172839,223.27160493827157,0)" xlink:href="#ay"/></g><path fill="#7ab648" d="M115-194c55 1 70 41 70 98S169 2 115 4C84 4 66-9 55-30l1 105H24l-1-265h31l2 30c10-21 28-34 59-34zm-8 174c40 0 45-34 45-75s-6-73-45-74c-42 0-51 32-51 76 0 43 10 73 51 73" id="bv"/><g id="E"><use transform="matrix(0.06172839506172839,0,0,0.06172839506172839,0,0)" xlink:href="#bk"/><use transform="matrix(0.06172839506172839,0,0,0.06172839506172839,12.962962962962962,0)" xlink:href="#bv"/><use transform="matrix(0.06172839506172839,0,0,0.06172839506172839,25.30864197530864,0)" xlink:href="#ay"/><use transform="matrix(0.06172839506172839,0,0,0.06172839506172839,32.654320987654316,0)" xlink:href="#bm"/><use transform="matrix(0.06172839506172839,0,0,0.06172839506172839,44.99999999999999,0)" xlink:href="#at"/><use transform="matrix(0.06172839506172839,0,0,0.06172839506172839,56.1111111111111,0)" xlink:href="#ar"/><use transform="matrix(0.06172839506172839,0,0,0.06172839506172839,68.45679012345678,0)" xlink:href="#av"/><use transform="matrix(0.06172839506172839,0,0,0.06172839506172839,79.5679012345679,0)" xlink:href="#av"/><use transform="matrix(0.06172839506172839,0,0,0.06172839506172839,90.67901234567901,0)" xlink:href="#an"/><use transform="matrix(0.06172839506172839,0,0,0.06172839506172839,98.0246913580247,0)" xlink:href="#ap"/></g><g id="F"><use transform="matrix(0.06172839506172839,0,0,0.06172839506172839,0,0)" xlink:href="#at"/><use transform="matrix(0.06172839506172839,0,0,0.06172839506172839,11.11111111111111,0)" xlink:href="#ay"/><use transform="matrix(0.06172839506172839,0,0,0.06172839506172839,18.45679012345679,0)" xlink:href="#bm"/><use transform="matrix(0.06172839506172839,0,0,0.06172839506172839,30.80246913580247,0)" xlink:href="#az"/></g><path fill="#7ab648" d="M18-150v-26h174v26H18zm0 90v-26h174v26H18" id="bw"/><use transform="matrix(0.06172839506172839,0,0,0.06172839506172839,0,0)" xlink:href="#bw" id="G"/><path fill="#7ab648" d="M101-251c68 0 85 55 85 127S166 4 100 4C33 4 14-52 14-124c0-73 17-127 87-127zm-1 229c47 0 54-49 54-102s-4-102-53-102c-51 0-55 48-55 102 0 53 5 102 54 102" id="bx"/><use transform="matrix(0.06172839506172839,0,0,0.06172839506172839,0,0)" xlink:href="#bx" id="H"/><path fill="#7ab648" d="M80-196l47-18 7 23-49 13 32 44-20 13-27-46-27 45-21-12 33-44-49-13 8-23 47 19-2-53h23" id="by"/><use transform="matrix(0.06172839506172839,0,0,0.06172839506172839,0,0)" xlink:href="#by" id="I"/><use transform="matrix(0.06172839506172839,0,0,0.06172839506172839,0,0)" xlink:href="#by" id="J"/><path fill="#7ab648" d="M140-251c81 0 123 46 123 126C263-46 219 4 140 4 59 4 17-45 17-125s42-126 123-126zm0 227c63 0 89-41 89-101s-29-99-89-99c-61 0-89 39-89 99S79-25 140-24" id="bz"/><g id="K"><use transform="matrix(0.06172839506172839,0,0,0.06172839506172839,0,0)" xlink:href="#bz"/><use transform="matrix(0.06172839506172839,0,0,0.06172839506172839,17.28395061728395,0)" xlink:href="#az"/><use transform="matrix(0.06172839506172839,0,0,0.06172839506172839,29.629629629629626,0)" xlink:href="#at"/><use transform="matrix(0.06172839506172839,0,0,0.06172839506172839,40.74074074074073,0)" xlink:href="#ar"/></g><g id="L"><use transform="matrix(0.06172839506172839,0,0,0.06172839506172839,0,0)" xlink:href="#aC"/><use transform="matrix(0.06172839506172839,0,0,0.06172839506172839,18.456790123456788,0)" xlink:href="#ax"/><use transform="matrix(0.06172839506172839,0,0,0.06172839506172839,30.80246913580247,0)" xlink:href="#bv"/></g><g id="M"><use transform="matrix(0.06172839506172839,0,0,0.06172839506172839,0,0)" xlink:href="#ay"/><use transform="matrix(0.06172839506172839,0,0,0.06172839506172839,7.345679012345679,0)" xlink:href="#ar"/><use transform="matrix(0.06172839506172839,0,0,0.06172839506172839,19.691358024691358,0)" xlink:href="#bn"/><use transform="matrix(0.06172839506172839,0,0,0.06172839506172839,32.03703703703704,0)" xlink:href="#aB"/><use transform="matrix(0.06172839506172839,0,0,0.06172839506172839,44.382716049382715,0)" xlink:href="#at"/><use transform="matrix(0.06172839506172839,0,0,0.06172839506172839,55.49382716049382,0)" xlink:href="#ar"/></g><path fill="#7ab648" d="M24-231v-30h32v30H24zM-9 49c24 4 33-6 33-30v-209h32V24c2 40-23 58-65 49V49" id="bA"/><g id="N"><use transform="matrix(0.06172839506172839,0,0,0.06172839506172839,0,0)" xlink:href="#bA"/><use transform="matrix(0.06172839506172839,0,0,0.06172839506172839,4.876543209876543,0)" xlink:href="#bm"/><use transform="matrix(0.06172839506172839,0,0,0.06172839506172839,17.22222222222222,0)" xlink:href="#bp"/></g><g id="O"><use transform="matrix(0.06172839506172839,0,0,0.06172839506172839,0,0)" xlink:href="#at"/><use transform="matrix(0.06172839506172839,0,0,0.06172839506172839,11.11111111111111,0)" xlink:href="#bm"/><use transform="matrix(0.06172839506172839,0,0,0.06172839506172839,23.45679012345679,0)" xlink:href="#aC"/><use transform="matrix(0.06172839506172839,0,0,0.06172839506172839,41.91358024691358,0)" xlink:href="#bv"/><use transform="matrix(0.06172839506172839,0,0,0.06172839506172839,54.25925925925926,0)" xlink:href="#aw"/><use transform="matrix(0.06172839506172839,0,0,0.06172839506172839,59.135802469135804,0)" xlink:href="#ar"/><use transform="matrix(0.06172839506172839,0,0,0.06172839506172839,71.48148148148148,0)" xlink:href="#as"/><use transform="matrix(0.06172839506172839,0,0,0.06172839506172839,77.65432098765432,0)" xlink:href="#ar"/><use transform="matrix(0.06172839506172839,0,0,0.06172839506172839,90,0)" xlink:href="#av"/><use transform="matrix(0.06172839506172839,0,0,0.06172839506172839,101.11111111111111,0)" xlink:href="#bo"/></g><g id="P"><use transform="matrix(0.06172839506172839,0,0,0.06172839506172839,0,0)" xlink:href="#aq"/><use transform="matrix(0.06172839506172839,0,0,0.06172839506172839,13.518518518518517,0)" xlink:href="#ar"/><use transform="matrix(0.06172839506172839,0,0,0.06172839506172839,25.864197530864196,0)" xlink:href="#ar"/><use transform="matrix(0.06172839506172839,0,0,0.06172839506172839,38.20987654320987,0)" xlink:href="#bn"/></g><g id="Q"><use transform="matrix(0.06172839506172839,0,0,0.06172839506172839,0,0)" xlink:href="#bv"/><use transform="matrix(0.06172839506172839,0,0,0.06172839506172839,12.345679012345679,0)" xlink:href="#ay"/><use transform="matrix(0.06172839506172839,0,0,0.06172839506172839,19.691358024691358,0)" xlink:href="#bm"/><use transform="matrix(0.06172839506172839,0,0,0.06172839506172839,32.03703703703704,0)" xlink:href="#at"/><use transform="matrix(0.06172839506172839,0,0,0.06172839506172839,43.14814814814815,0)" xlink:href="#ar"/><use transform="matrix(0.06172839506172839,0,0,0.06172839506172839,55.49382716049383,0)" xlink:href="#av"/><use transform="matrix(0.06172839506172839,0,0,0.06172839506172839,66.60493827160494,0)" xlink:href="#av"/><use transform="matrix(0.06172839506172839,0,0,0.06172839506172839,77.71604938271605,0)" xlink:href="#bm"/><use transform="matrix(0.06172839506172839,0,0,0.06172839506172839,90.06172839506173,0)" xlink:href="#ay"/></g><g id="R"><use transform="matrix(0.06172839506172839,0,0,0.06172839506172839,0,0)" xlink:href="#aF"/><use transform="matrix(0.06172839506172839,0,0,0.06172839506172839,4.876543209876543,0)" xlink:href="#az"/><use transform="matrix(0.06172839506172839,0,0,0.06172839506172839,17.22222222222222,0)" xlink:href="#bj"/><use transform="matrix(0.06172839506172839,0,0,0.06172839506172839,28.333333333333332,0)" xlink:href="#bm"/><use transform="matrix(0.06172839506172839,0,0,0.06172839506172839,40.67901234567901,0)" xlink:href="#aA"/><use transform="matrix(0.06172839506172839,0,0,0.06172839506172839,51.79012345679013,0)" xlink:href="#ar"/><use transform="matrix(0.06172839506172839,0,0,0.06172839506172839,64.13580246913581,0)" xlink:href="#av"/></g><g id="S"><use transform="matrix(0.06172839506172839,0,0,0.06172839506172839,0,0)" xlink:href="#as"/><use transform="matrix(0.06172839506172839,0,0,0.06172839506172839,6.172839506172839,0)" xlink:href="#au"/><use transform="matrix(0.06172839506172839,0,0,0.06172839506172839,18.51851851851852,0)" xlink:href="#ar"/></g><g id="T"><use transform="matrix(0.06172839506172839,0,0,0.06172839506172839,0,0)" xlink:href="#bp"/><use transform="matrix(0.06172839506172839,0,0,0.06172839506172839,12.345679012345679,0)" xlink:href="#aB"/><use transform="matrix(0.06172839506172839,0,0,0.06172839506172839,24.691358024691358,0)" xlink:href="#aF"/><use transform="matrix(0.06172839506172839,0,0,0.06172839506172839,29.5679012345679,0)" xlink:href="#aw"/><use transform="matrix(0.06172839506172839,0,0,0.06172839506172839,34.44444444444444,0)" xlink:href="#bn"/><use transform="matrix(0.06172839506172839,0,0,0.06172839506172839,46.79012345679012,0)" xlink:href="#bg"/><use transform="matrix(0.06172839506172839,0,0,0.06172839506172839,62.77777777777777,0)" xlink:href="#ax"/><use transform="matrix(0.06172839506172839,0,0,0.06172839506172839,75.12345679012346,0)" xlink:href="#at"/><use transform="matrix(0.06172839506172839,0,0,0.06172839506172839,86.23456790123457,0)" xlink:href="#au"/><use transform="matrix(0.06172839506172839,0,0,0.06172839506172839,98.58024691358025,0)" xlink:href="#ar"/></g><g id="U"><use transform="matrix(0.06172839506172839,0,0,0.06172839506172839,0,0)" xlink:href="#bm"/><use transform="matrix(0.06172839506172839,0,0,0.06172839506172839,12.345679012345679,0)" xlink:href="#az"/></g><g id="V"><use transform="matrix(0.06172839506172839,0,0,0.06172839506172839,0,0)" xlink:href="#at"/><use transform="matrix(0.06172839506172839,0,0,0.06172839506172839,11.11111111111111,0)" xlink:href="#ax"/><use transform="matrix(0.06172839506172839,0,0,0.06172839506172839,23.45679012345679,0)" xlink:href="#at"/><use transform="matrix(0.06172839506172839,0,0,0.06172839506172839,34.5679012345679,0)" xlink:href="#au"/><use transform="matrix(0.06172839506172839,0,0,0.06172839506172839,46.913580246913575,0)" xlink:href="#aF"/><use transform="matrix(0.06172839506172839,0,0,0.06172839506172839,51.79012345679012,0)" xlink:href="#az"/><use transform="matrix(0.06172839506172839,0,0,0.06172839506172839,64.1358024691358,0)" xlink:href="#bh"/></g><g id="W"><use transform="matrix(0.06172839506172839,0,0,0.06172839506172839,0,0)" xlink:href="#av"/><use transform="matrix(0.06172839506172839,0,0,0.06172839506172839,11.11111111111111,0)" xlink:href="#ar"/><use transform="matrix(0.06172839506172839,0,0,0.06172839506172839,23.45679012345679,0)" xlink:href="#ay"/><use transform="matrix(0.06172839506172839,0,0,0.06172839506172839,30.80246913580247,0)" xlink:href="#bj"/><use transform="matrix(0.06172839506172839,0,0,0.06172839506172839,41.91358024691358,0)" xlink:href="#aF"/><use transform="matrix(0.06172839506172839,0,0,0.06172839506172839,46.79012345679013,0)" xlink:href="#at"/><use transform="matrix(0.06172839506172839,0,0,0.06172839506172839,57.90123456790124,0)" xlink:href="#ar"/></g><path fill="#3b48cc" d="M136-208V0H84v-208H4v-40h212v40h-80" id="bB"/><path fill="#3b48cc" d="M114-157C55-157 80-60 75 0H25v-261h50l-1 109c12-26 28-41 61-42 86-1 58 113 63 194h-50c-7-57 23-157-34-157" id="bC"/><path fill="#3b48cc" d="M185-48c-13 30-37 53-82 52C43 2 14-33 14-96s30-98 90-98c62 0 83 45 84 108H66c0 31 8 55 39 56 18 0 30-7 34-22zm-45-69c5-46-57-63-70-21-2 6-4 13-4 21h74" id="bD"/><g id="X"><use transform="matrix(0.09259259259259256,0,0,0.09259259259259256,0,0)" xlink:href="#bB"/><use transform="matrix(0.09259259259259256,0,0,0.09259259259259256,20.27777777777777,0)" xlink:href="#bC"/><use transform="matrix(0.09259259259259256,0,0,0.09259259259259256,40.55555555555554,0)" xlink:href="#bD"/></g><path fill="#3b48cc" d="M121-226c-27-7-43 5-38 36h38v33H83V0H34v-157H6v-33h28c-9-59 32-81 87-68v32" id="bE"/><path fill="#3b48cc" d="M25 0v-261h50V0H25" id="bF"/><path fill="#3b48cc" d="M110-194c64 0 96 36 96 99 0 64-35 99-97 99-61 0-95-36-95-99 0-62 34-99 96-99zm-1 164c35 0 45-28 45-65 0-40-10-65-43-65-34 0-45 26-45 65 0 36 10 65 43 65" id="bG"/><path fill="#3b48cc" d="M231 0h-52l-39-155L100 0H48L-1-190h46L77-45c9-52 24-97 36-145h53l37 145 32-145h46" id="bH"/><g id="Y"><use transform="matrix(0.09259259259259256,0,0,0.09259259259259256,0,0)" xlink:href="#bE"/><use transform="matrix(0.09259259259259256,0,0,0.09259259259259256,11.018518518518515,0)" xlink:href="#bF"/><use transform="matrix(0.09259259259259256,0,0,0.09259259259259256,20.27777777777777,0)" xlink:href="#bG"/><use transform="matrix(0.09259259259259256,0,0,0.09259259259259256,40.55555555555554,0)" xlink:href="#bH"/></g><path fill="#3b48cc" d="M135-150c-39-12-60 13-60 57V0H25l-1-190h47c2 13-1 29 3 40 6-28 27-53 61-41v41" id="bI"/><g id="Z"><use transform="matrix(0.09259259259259256,0,0,0.09259259259259256,0,0)" xlink:href="#bE"/><use transform="matrix(0.09259259259259256,0,0,0.09259259259259256,11.018518518518515,0)" xlink:href="#bG"/><use transform="matrix(0.09259259259259256,0,0,0.09259259259259256,31.296296296296283,0)" xlink:href="#bI"/></g><path fill="#3b48cc" d="M135-194c52 0 70 43 70 98 0 56-19 99-73 100-30 1-46-15-58-35L72 0H24l1-261h50v104c11-23 29-37 60-37zM114-30c31 0 40-27 40-66 0-37-7-63-39-63s-41 28-41 65c0 36 8 64 40 64" id="bJ"/><path fill="#3b48cc" d="M85 4C-2 5 27-109 22-190h50c7 57-23 150 33 157 60-5 35-97 40-157h50l1 190h-47c-2-12 1-28-3-38-12 25-28 42-61 42" id="bK"/><path fill="#3b48cc" d="M25-224v-37h50v37H25zM25 0v-190h50V0H25" id="bL"/><path fill="#3b48cc" d="M88-194c31-1 46 15 58 34l-1-101h50l1 261h-48c-2-10 0-23-3-31C134-8 116 4 84 4 32 4 16-41 15-95c0-56 19-97 73-99zm17 164c33 0 40-30 41-66 1-37-9-64-41-64s-38 30-39 65c0 43 13 65 39 65" id="bM"/><path fill="#3b48cc" d="M135-194c87-1 58 113 63 194h-50c-7-57 23-157-34-157-59 0-34 97-39 157H25l-1-190h47c2 12-1 28 3 38 12-26 28-41 61-42" id="bN"/><path fill="#3b48cc" d="M195-6C206 82 75 100 31 46c-4-6-6-13-8-21l49-6c3 16 16 24 34 25 40 0 42-37 40-79-11 22-30 35-61 35-53 0-70-43-70-97 0-56 18-96 73-97 30 0 46 14 59 34l2-30h47zm-90-29c32 0 41-27 41-63 0-35-9-62-40-62-32 0-39 29-40 63 0 36 9 62 39 62" id="bO"/><g id="aa"><use transform="matrix(0.09259259259259256,0,0,0.09259259259259256,0,0)" xlink:href="#bJ"/><use transform="matrix(0.09259259259259256,0,0,0.09259259259259256,20.27777777777777,0)" xlink:href="#bK"/><use transform="matrix(0.09259259259259256,0,0,0.09259259259259256,40.55555555555554,0)" xlink:href="#bL"/><use transform="matrix(0.09259259259259256,0,0,0.09259259259259256,49.814814814814795,0)" xlink:href="#bF"/><use transform="matrix(0.09259259259259256,0,0,0.09259259259259256,59.07407407407404,0)" xlink:href="#bM"/><use transform="matrix(0.09259259259259256,0,0,0.09259259259259256,79.35185185185182,0)" xlink:href="#bL"/><use transform="matrix(0.09259259259259256,0,0,0.09259259259259256,88.61111111111107,0)" xlink:href="#bN"/><use transform="matrix(0.09259259259259256,0,0,0.09259259259259256,108.88888888888886,0)" xlink:href="#bO"/></g><path fill="#3b48cc" d="M115-3C79 11 28 4 28-45v-112H4v-33h27l15-45h31v45h36v33H77v99c-1 23 16 31 38 25v30" id="bP"/><g id="ab"><use transform="matrix(0.09259259259259256,0,0,0.09259259259259256,0,0)" xlink:href="#bP"/><use transform="matrix(0.09259259259259256,0,0,0.09259259259259256,11.018518518518515,0)" xlink:href="#bC"/><use transform="matrix(0.09259259259259256,0,0,0.09259259259259256,31.296296296296283,0)" xlink:href="#bD"/></g><path fill="#3b48cc" d="M190-63c-7 42-38 67-86 67-59 0-84-38-90-98-12-110 154-137 174-36l-49 2c-2-19-15-32-35-32-30 0-35 28-38 64-6 74 65 87 74 30" id="bQ"/><path fill="#3b48cc" d="M133-34C117-15 103 5 69 4 32 3 11-16 11-54c-1-60 55-63 116-61 1-26-3-47-28-47-18 1-26 9-28 27l-52-2c7-38 36-58 82-57s74 22 75 68l1 82c-1 14 12 18 25 15v27c-30 8-71 5-69-32zm-48 3c29 0 43-24 42-57-32 0-66-3-65 30 0 17 8 27 23 27" id="bR"/><g id="ac"><use transform="matrix(0.09259259259259256,0,0,0.09259259259259256,0,0)" xlink:href="#bQ"/><use transform="matrix(0.09259259259259256,0,0,0.09259259259259256,18.518518518518512,0)" xlink:href="#bR"/><use transform="matrix(0.09259259259259256,0,0,0.09259259259259256,37.037037037037024,0)" xlink:href="#bQ"/><use transform="matrix(0.09259259259259256,0,0,0.09259259259259256,55.555555555555536,0)" xlink:href="#bC"/><use transform="matrix(0.09259259259259256,0,0,0.09259259259259256,75.83333333333331,0)" xlink:href="#bD"/></g><g id="ad"><use transform="matrix(0.08024691358024691,0,0,0.08024691358024691,0,0)" xlink:href="#bB"/><use transform="matrix(0.08024691358024691,0,0,0.08024691358024691,17.574074074074073,0)" xlink:href="#bC"/><use transform="matrix(0.08024691358024691,0,0,0.08024691358024691,35.148148148148145,0)" xlink:href="#bD"/></g><g id="ae"><use transform="matrix(0.08024691358024691,0,0,0.08024691358024691,0,0)" xlink:href="#bE"/><use transform="matrix(0.08024691358024691,0,0,0.08024691358024691,9.549382716049383,0)" xlink:href="#bF"/><use transform="matrix(0.08024691358024691,0,0,0.08024691358024691,17.574074074074076,0)" xlink:href="#bG"/><use transform="matrix(0.08024691358024691,0,0,0.08024691358024691,35.14814814814815,0)" xlink:href="#bH"/></g><g id="af"><use transform="matrix(0.08024691358024691,0,0,0.08024691358024691,0,0)" xlink:href="#bE"/><use transform="matrix(0.08024691358024691,0,0,0.08024691358024691,9.549382716049383,0)" xlink:href="#bG"/><use transform="matrix(0.08024691358024691,0,0,0.08024691358024691,27.123456790123456,0)" xlink:href="#bI"/></g><g id="ag"><use transform="matrix(0.08024691358024691,0,0,0.08024691358024691,0,0)" xlink:href="#bP"/><use transform="matrix(0.08024691358024691,0,0,0.08024691358024691,9.549382716049383,0)" xlink:href="#bC"/><use transform="matrix(0.08024691358024691,0,0,0.08024691358024691,27.123456790123456,0)" xlink:href="#bD"/></g><path fill="#3b48cc" d="M135-194c53 0 70 44 70 98 0 56-19 98-73 100-31 1-45-17-59-34 3 33 2 69 2 105H25l-1-265h48c2 10 0 23 3 31 11-24 29-35 60-35zM114-30c33 0 39-31 40-66 0-38-9-64-40-64-56 0-55 130 0 130" id="bS"/><g id="ah"><use transform="matrix(0.08024691358024691,0,0,0.08024691358024691,0,0)" xlink:href="#bS"/><use transform="matrix(0.08024691358024691,0,0,0.08024691358024691,17.574074074074073,0)" xlink:href="#bI"/><use transform="matrix(0.08024691358024691,0,0,0.08024691358024691,28.80864197530864,0)" xlink:href="#bG"/><use transform="matrix(0.08024691358024691,0,0,0.08024691358024691,46.3827160493827,0)" xlink:href="#bM"/><use transform="matrix(0.08024691358024691,0,0,0.08024691358024691,63.956790123456784,0)" xlink:href="#bK"/><use transform="matrix(0.08024691358024691,0,0,0.08024691358024691,81.53086419753086,0)" xlink:href="#bQ"/><use transform="matrix(0.08024691358024691,0,0,0.08024691358024691,97.58024691358024,0)" xlink:href="#bP"/></g><path fill="#3b48cc" d="M137-138c1-29-70-34-71-4 15 46 118 7 119 86 1 83-164 76-172 9l43-7c4 19 20 25 44 25 33 8 57-30 24-41C81-84 22-81 20-136c-2-80 154-74 161-7" id="bT"/><g id="ai"><use transform="matrix(0.08024691358024691,0,0,0.08024691358024691,0,0)" xlink:href="#bT"/><use transform="matrix(0.08024691358024691,0,0,0.08024691358024691,16.049382716049383,0)" xlink:href="#bR"/><use transform="matrix(0.08024691358024691,0,0,0.08024691358024691,32.098765432098766,0)" xlink:href="#bF"/><use transform="matrix(0.08024691358024691,0,0,0.08024691358024691,40.123456790123456,0)" xlink:href="#bD"/><use transform="matrix(0.08024691358024691,0,0,0.08024691358024691,56.172839506172835,0)" xlink:href="#bT"/></g><path fill="#3b48cc" d="M147 0L96-86 75-71V0H25v-261h50v150l67-79h53l-66 74L201 0h-54" id="bU"/><g id="aj"><use transform="matrix(0.08024691358024691,0,0,0.08024691358024691,0,0)" xlink:href="#bI"/><use transform="matrix(0.08024691358024691,0,0,0.08024691358024691,11.234567901234568,0)" xlink:href="#bR"/><use transform="matrix(0.08024691358024691,0,0,0.08024691358024691,27.28395061728395,0)" xlink:href="#bN"/><use transform="matrix(0.08024691358024691,0,0,0.08024691358024691,44.858024691358025,0)" xlink:href="#bU"/><use transform="matrix(0.08024691358024691,0,0,0.08024691358024691,60.907407407407405,0)" xlink:href="#bL"/><use transform="matrix(0.08024691358024691,0,0,0.08024691358024691,68.9320987654321,0)" xlink:href="#bN"/><use transform="matrix(0.08024691358024691,0,0,0.08024691358024691,86.50617283950619,0)" xlink:href="#bO"/></g><path fill="#3b48cc" d="M199 0l-22-63H83L61 0H9l90-248h61L250 0h-51zm-33-102l-36-108c-10 38-24 72-36 108h72" id="bV"/><path fill="#3b48cc" d="M24-248c93 1 206-16 204 79-1 75-69 88-152 82V0H24v-248zm52 121c47 0 100 7 100-41 0-47-54-39-100-39v80" id="bW"/><path fill="#3b48cc" d="M24 0v-248h52V0H24" id="bX"/><g id="ak"><use transform="matrix(0.08024691358024691,0,0,0.08024691358024691,0,0)" xlink:href="#bV"/><use transform="matrix(0.08024691358024691,0,0,0.08024691358024691,20.78395061728395,0)" xlink:href="#bW"/><use transform="matrix(0.08024691358024691,0,0,0.08024691358024691,40.04320987654321,0)" xlink:href="#bX"/></g><path d="M212-179c-10-28-35-45-73-45-59 0-87 40-87 99 0 60 29 101 89 101 43 0 62-24 78-52l27 14C228-24 195 4 139 4 59 4 22-46 18-125c-6-104 99-153 187-111 19 9 31 26 39 46" id="bY"/><path d="M24 0v-261h32V0H24" id="bZ"/><path d="M24-231v-30h32v30H24zM24 0v-190h32V0H24" id="ca"/><path d="M100-194c63 0 86 42 84 106H49c0 40 14 67 53 68 26 1 43-12 49-29l28 8c-11 28-37 45-77 45C44 4 14-33 15-96c1-61 26-98 85-98zm52 81c6-60-76-77-97-28-3 7-6 17-6 28h103" id="cb"/><path d="M117-194c89-4 53 116 60 194h-32v-121c0-31-8-49-39-48C34-167 62-67 57 0H25l-1-190h30c1 10-1 24 2 32 11-22 29-35 61-36" id="cc"/><path d="M59-47c-2 24 18 29 38 22v24C64 9 27 4 27-40v-127H5v-23h24l9-43h21v43h35v23H59v120" id="cd"/><g id="al"><use transform="matrix(0.05,0,0,0.05,0,0)" xlink:href="#bY"/><use transform="matrix(0.05,0,0,0.05,12.950000000000001,0)" xlink:href="#bZ"/><use transform="matrix(0.05,0,0,0.05,16.900000000000002,0)" xlink:href="#ca"/><use transform="matrix(0.05,0,0,0.05,20.85,0)" xlink:href="#cb"/><use transform="matrix(0.05,0,0,0.05,30.85,0)" xlink:href="#cc"/><use transform="matrix(0.05,0,0,0.05,40.85,0)" xlink:href="#cd"/></g><path d="M205 0l-28-72H64L36 0H1l101-248h38L239 0h-34zm-38-99l-47-123c-12 45-31 82-46 123h93" id="ce"/><path d="M115-194c55 1 70 41 70 98S169 2 115 4C84 4 66-9 55-30l1 105H24l-1-265h31l2 30c10-21 28-34 59-34zm-8 174c40 0 45-34 45-75s-6-73-45-74c-42 0-51 32-51 76 0 43 10 73 51 73" id="cf"/><path d="M135-143c-3-34-86-38-87 0 15 53 115 12 119 90S17 21 10-45l28-5c4 36 97 45 98 0-10-56-113-15-118-90-4-57 82-63 122-42 12 7 21 19 24 35" id="cg"/><g id="am"><use transform="matrix(0.05,0,0,0.05,0,0)" xlink:href="#ce"/><use transform="matrix(0.05,0,0,0.05,12,0)" xlink:href="#cf"/><use transform="matrix(0.05,0,0,0.05,22,0)" xlink:href="#cf"/><use transform="matrix(0.05,0,0,0.05,32,0)" xlink:href="#cg"/></g></defs></g></svg>